<svg width="618" height="131" viewBox="0 0 618 131" fill="none" xmlns="http://www.w3.org/2000/svg">
<path d="M21.1875 14.875C20.7188 14.5938 20.6719 14.125 21.0469 13.4688C21.4219 12.7187 21.7031 12.25 21.8906 12.0625C22.0781 11.875 22.3125 11.7812 22.5938 11.7812C22.875 11.6875 23.1562 11.5469 23.4375 11.3594C23.9062 11.0781 24.375 10.7031 24.8438 10.2344C25.3125 9.76562 25.7812 9.39062 26.25 9.10938L28.3594 8.26562C29.3906 7.70312 30.4688 7.1875 31.5938 6.71875C32.8125 6.15625 33.9375 5.73438 34.9688 5.45312C37.5 4.14062 40.3594 3.25 43.5469 2.78125C43.9219 2.6875 44.2969 2.6875 44.6719 2.78125C45.0469 2.78125 45.4219 2.73437 45.7969 2.64062C47.3906 2.45312 48.8906 2.17187 50.2969 1.79688C51.7969 1.32812 53.2031 1 54.5156 0.8125C55.1719 0.625 55.7812 0.671875 56.3438 0.953125C57 1.14063 57.2812 1.46875 57.1875 1.9375C56.8125 2.6875 56.1094 3.0625 55.0781 3.0625C54.1406 3.0625 53.1562 3.01562 52.125 2.92188C51.4688 3.10938 50.7188 3.34375 49.875 3.625C49.125 3.8125 48.375 4.04688 47.625 4.32812C46.125 4.70312 45 5.54687 44.25 6.85938C43.4062 7.32813 42.2344 7.65625 40.7344 7.84375C39.2344 8.03125 38.1094 7.89063 37.3594 7.42188C36.5156 7.60938 35.8125 7.5625 35.25 7.28125C33.1875 8.03125 31.3125 8.92187 29.625 9.95312C27.9375 10.9844 26.25 12.0156 24.5625 13.0469C24.1875 13.2344 23.625 13.6563 22.875 14.3125C22.125 14.9687 21.5625 15.1562 21.1875 14.875ZM116.812 97.9844C117.375 98.4531 117.797 99.0625 118.078 99.8125C118.453 100.562 118.781 101.312 119.062 102.062C119.062 103.281 118.781 104.359 118.219 105.297C117.656 106.234 117.141 107.172 116.672 108.109C115.359 108.859 114.141 109.703 113.016 110.641C111.984 111.578 110.859 112.516 109.641 113.453C108.984 113.828 108.281 114.25 107.531 114.719C106.781 115.094 106.031 115.469 105.281 115.844C104.625 116.125 103.922 116.266 103.172 116.266C102.516 116.359 101.812 116.5 101.062 116.688C100.594 116.875 100.078 117.062 99.5156 117.25C99.0469 117.438 98.5312 117.625 97.9688 117.812C97.5 118 97.0312 118.094 96.5625 118.094C96.1875 118.188 95.7656 118.328 95.2969 118.516C94.3594 118.797 93.2812 119.078 92.0625 119.359C90.8438 119.734 89.6719 120.062 88.5469 120.344C88.1719 120.438 87.8438 120.531 87.5625 120.625C87.2812 120.719 87 120.812 86.7188 120.906C85.5 120.906 84.5625 121 83.9062 121.188C83.3438 121.375 82.7344 121.562 82.0781 121.75C80.2031 122.219 78.2812 122.453 76.3125 122.453C75.9375 122.359 75.5625 122.312 75.1875 122.312C74.9062 122.312 74.625 122.266 74.3438 122.172C73.7812 121.984 73.2656 121.703 72.7969 121.328C72.4219 121.047 71.8594 120.859 71.1094 120.766C69.7969 120.672 68.2969 120.812 66.6094 121.188C65.0156 121.562 63.7969 121.984 62.9531 122.453C62.6719 122.641 62.4375 122.875 62.25 123.156C62.0625 123.438 61.8281 123.672 61.5469 123.859C60.0469 123.766 58.9688 123.766 58.3125 123.859C57.75 124.047 57.2344 124.047 56.7656 123.859C56.4844 123.859 56.2031 123.812 55.9219 123.719C55.6406 123.625 55.3594 123.578 55.0781 123.578C54.7969 123.578 54.5156 123.578 54.2344 123.578C54.0469 123.672 53.8125 123.672 53.5312 123.578C52.3125 123.297 51.5156 123.156 51.1406 123.156C50.8594 123.25 50.5312 123.297 50.1562 123.297C48.8438 123.109 47.5781 122.828 46.3594 122.453C45.2344 122.078 44.1562 121.891 43.125 121.891C42.6562 121.422 42.0938 121.188 41.4375 121.188C40.875 121.281 40.2656 121.234 39.6094 121.047C39.1406 120.953 38.5781 120.719 37.9219 120.344C37.3594 120.062 36.7969 119.828 36.2344 119.641C35.1094 119.359 34.4062 119.125 34.125 118.938C33.9375 118.75 33.7031 118.609 33.4219 118.516C32.6719 118.047 31.7812 117.672 30.75 117.391C29.7188 117.203 28.8281 116.922 28.0781 116.547C26.5781 115.609 25.3125 115.047 24.2812 114.859C23.3438 114.672 22.4531 114.344 21.6094 113.875C20.7656 113.406 19.9688 112.844 19.2188 112.188C18.4688 111.531 17.7188 110.875 16.9688 110.219C16.875 109.75 16.7812 109.281 16.6875 108.812C16.6875 108.344 16.6406 107.875 16.5469 107.406C16.3594 106.938 16.1719 106.422 15.9844 105.859C15.7969 105.203 15.5625 104.734 15.2812 104.453C14.7188 103.984 13.9688 103.703 13.0312 103.609C12.1875 103.422 11.6719 102.859 11.4844 101.922C11.4844 101.547 11.5312 101.125 11.625 100.656C11.7188 100.094 11.7656 99.5312 11.7656 98.9688C11.8594 98.4062 11.9062 97.8906 11.9062 97.4219C12 96.9531 11.9531 96.5781 11.7656 96.2969C11.5781 96.0156 11.2031 95.8281 10.6406 95.7344C10.1719 95.6406 9.75 95.5469 9.375 95.4531C8.34375 95.0781 7.35938 94.6562 6.42188 94.1875C5.48438 93.625 4.78125 92.875 4.3125 91.9375C3.9375 91.375 3.70312 90.7188 3.60938 89.9688C3.51562 89.2188 3.375 88.4219 3.1875 87.5781C3 86.8281 2.76562 86.125 2.48438 85.4688C2.29688 84.8125 2.10938 84.1094 1.92188 83.3594C1.73438 82.0469 1.59375 80.8281 1.5 79.7031C1.5 78.4844 1.40625 77.2188 1.21875 75.9062C1.21875 75.4375 1.17188 74.9688 1.07812 74.5C0.984375 73.9375 0.890625 73.375 0.796875 72.8125C0.609375 71.2188 0.515625 69.625 0.515625 68.0312C0.609375 66.3438 0.703125 64.7031 0.796875 63.1094C0.796875 62.8281 0.75 62.4531 0.65625 61.9844C0.65625 61.5156 0.703125 61.0938 0.796875 60.7188C1.45312 59.3125 1.73438 58.2344 1.64062 57.4844C1.64062 56.7344 1.6875 56.0781 1.78125 55.5156C1.96875 52.7969 2.53125 50.4062 3.46875 48.3438C4.40625 46.1875 5.29688 43.8906 6.14062 41.4531C6.60938 41.1719 7.125 40.7969 7.6875 40.3281C8.34375 39.8594 8.8125 39.2969 9.09375 38.6406C9.75 37.5156 10.125 36.2031 10.2188 34.7031C10.4062 33.2031 10.875 31.8906 11.625 30.7656C11.9062 30.3906 12.1875 30.1094 12.4688 29.9219C12.8438 29.6406 13.125 29.4062 13.3125 29.2188C13.6875 28.2812 14.0156 27.625 14.2969 27.25C14.8594 26.5 15.2344 25.9375 15.4219 25.5625C15.8906 25.1875 16.2188 24.7656 16.4062 24.2969C16.6875 23.8281 17.0625 23.3594 17.5312 22.8906C18.2812 22.0469 19.0312 21.2969 19.7812 20.6406C20.625 19.9844 21.4688 19.3281 22.3125 18.6719C22.7812 18.2031 23.25 17.7812 23.7188 17.4062C24.2812 17.0313 24.8906 16.6562 25.5469 16.2812C26.2969 15.8125 27 15.3438 27.6562 14.875C28.4062 14.4062 29.2969 13.9375 30.3281 13.4688C32.3906 12.5313 34.6406 11.5469 37.0781 10.5156C38.1094 10.7031 39.1875 10.9375 40.3125 11.2188C41.5312 11.4063 42.6562 11.4063 43.6875 11.2188C44.4375 11.0312 45 10.7031 45.375 10.2344C45.8438 9.67188 46.3125 9.0625 46.7812 8.40625C48.4688 7.75 50.2031 7.14062 51.9844 6.57812C53.7656 6.01562 55.5938 5.82812 57.4688 6.01562C58.9688 5.54687 60.5625 5.35938 62.25 5.45312C64.0312 5.54687 65.8125 5.54687 67.5938 5.45312C68.0625 5.45312 68.7188 5.5 69.5625 5.59375C70.5 5.6875 71.3438 5.82812 72.0938 6.01562C72.75 6.20313 73.3594 6.29688 73.9219 6.29688C74.4844 6.29688 75.0469 6.34375 75.6094 6.4375C75.9844 6.53125 76.3125 6.67187 76.5938 6.85938C76.875 6.95312 77.2031 7 77.5781 7C78.1406 7.09375 78.6562 7.09375 79.125 7C79.6875 6.90625 80.2031 6.85938 80.6719 6.85938C81.1406 6.85938 81.6094 7 82.0781 7.28125C82.6406 7.5625 83.25 7.75 83.9062 7.84375C85.2188 8.03125 85.9688 8.17188 86.1562 8.26562C86.7188 8.45313 87.2344 8.54688 87.7031 8.54688C88.2656 8.54688 88.7812 8.59375 89.25 8.6875C90.2812 9.15625 90.8438 9.39062 90.9375 9.39062C91.125 9.29688 91.3125 9.29688 91.5 9.39062C91.9688 9.57813 92.4375 9.8125 92.9062 10.0938C93.4688 10.375 93.9844 10.6094 94.4531 10.7969C94.7344 10.8906 95.0156 10.9375 95.2969 10.9375C95.5781 10.8438 95.8594 10.8438 96.1406 10.9375C97.0781 11.4063 97.6406 11.6406 97.8281 11.6406C98.1094 11.6406 98.3438 11.7344 98.5312 11.9219C99 12.2031 99.3281 12.625 99.5156 13.1875C99.7969 13.6563 100.125 14.125 100.5 14.5938C100.688 14.9687 100.922 15.25 101.203 15.4375C101.578 15.625 101.906 15.9531 102.188 16.4219C102.562 16.4219 102.844 16.5156 103.031 16.7031C103.312 16.8906 103.688 17.0313 104.156 17.125C104.625 17.2187 105.047 17.2187 105.422 17.125C105.797 17.0313 106.172 17.0313 106.547 17.125C107.391 17.5 108.234 17.9219 109.078 18.3906C109.453 18.5781 109.875 18.8594 110.344 19.2344C110.812 19.5156 111.281 19.8438 111.75 20.2188C112.312 20.5937 112.875 21.0156 113.438 21.4844C114.094 21.8594 114.656 22.3281 115.125 22.8906C115.594 23.3594 116.109 23.9219 116.672 24.5781C117.234 25.1406 117.797 25.75 118.359 26.4062C119.016 27.3437 119.156 28.4688 118.781 29.7812C118.5 31.0938 118.219 32.2188 117.938 33.1562C117.375 33.4375 116.859 33.8594 116.391 34.4219C116.016 34.8906 115.547 35.3594 114.984 35.8281C114.797 36.0156 114.469 36.1562 114 36.25C113.625 36.3438 113.297 36.4844 113.016 36.6719C112.641 36.8594 112.312 37.1875 112.031 37.6562C111.844 38.0312 111.562 38.3125 111.188 38.5C110.156 38.5 109.5 38.5938 109.219 38.7812C108.938 38.875 108.703 38.9219 108.516 38.9219C108.328 38.9219 108.047 38.875 107.672 38.7812C107.297 38.6875 107.016 38.5938 106.828 38.5C105.797 38.0312 104.766 37.4219 103.734 36.6719C102.797 35.9219 101.625 35.4531 100.219 35.2656C98.9062 34.7969 97.7812 34.1406 96.8438 33.2969C95.9062 32.3594 94.7812 31.6562 93.4688 31.1875C93 31.375 92.625 31.375 92.3438 31.1875C92.0625 30.9062 91.6875 30.7188 91.2188 30.625C90.9375 30.4375 90.6094 30.3906 90.2344 30.4844C89.8594 30.4844 89.5312 30.4375 89.25 30.3438C88.6875 30.1562 88.125 29.9219 87.5625 29.6406C87.0938 29.3594 86.5781 29.125 86.0156 28.9375C85.3594 28.75 84.7031 28.6562 84.0469 28.6562C83.3906 28.5625 82.7344 28.4688 82.0781 28.375C81.5156 28.1875 80.9062 28.0469 80.25 27.9531C79.6875 27.7656 79.125 27.6719 78.5625 27.6719C77.8125 27.6719 77.1562 27.7188 76.5938 27.8125C76.0312 27.8125 75.4688 27.7656 74.9062 27.6719C74.5312 27.4844 74.1562 27.3437 73.7812 27.25C73.5 27.1563 73.125 27.1094 72.6562 27.1094C71.3438 27.1094 69.9375 27.1094 68.4375 27.1094C67.0312 27.1094 65.7188 27.1563 64.5 27.25C63.75 27.3437 62.9531 27.5781 62.1094 27.9531C61.3594 28.3281 60.6094 28.6094 59.8594 28.7969C59.6719 28.8906 59.4375 28.9375 59.1562 28.9375C58.875 28.8438 58.5938 28.8438 58.3125 28.9375C57 29.5938 56.0156 30.0156 55.3594 30.2031C54.7969 30.3906 54.2344 30.7656 53.6719 31.3281C53.1094 31.3281 52.6406 31.4688 52.2656 31.75C51.8906 31.9375 51.4688 32.125 51 32.3125C50.4375 33.4375 49.875 34.5156 49.3125 35.5469C48.75 36.4844 48.2344 37.5625 47.7656 38.7812C47.7656 40.0938 47.625 41.4062 47.3438 42.7188C47.1562 43.9375 46.9688 45.25 46.7812 46.6562C46.5938 47.4062 46.4062 48.1094 46.2188 48.7656C46.0312 49.3281 45.9375 49.9375 45.9375 50.5938C45.9375 51.0625 45.9375 51.5781 45.9375 52.1406C46.0312 52.6094 46.0781 53.0781 46.0781 53.5469C46.0781 54.2969 45.9844 55 45.7969 55.6562C45.7031 56.2188 45.7031 56.875 45.7969 57.625C45.6094 57.8125 45.4219 58.0469 45.2344 58.3281C45.0469 58.6094 44.8125 58.8438 44.5312 59.0312C43.5 60.4375 43.3594 61.8906 44.1094 63.3906C44.8594 64.8906 45.5156 66.25 46.0781 67.4688C45.9844 68.875 45.8906 69.9062 45.7969 70.5625C45.7031 71.125 45.7031 71.6875 45.7969 72.25C45.7969 73 45.75 73.8438 45.6562 74.7812C45.6562 75.625 45.7031 76.5156 45.7969 77.4531C45.8906 77.9219 45.9844 78.3906 46.0781 78.8594C46.1719 79.3281 46.2656 79.7969 46.3594 80.2656C46.3594 81.2969 46.3125 82.375 46.2188 83.5C46.125 84.625 46.1719 85.75 46.3594 86.875C46.7344 88.75 46.9688 90.1562 47.0625 91.0938C47.1562 92.0312 47.5781 92.875 48.3281 93.625C48.5156 94 48.7969 94.3281 49.1719 94.6094C49.5469 94.7969 49.875 94.9844 50.1562 95.1719C51 95.8281 51.8906 96.3906 52.8281 96.8594C53.7656 97.3281 54.7031 97.9375 55.6406 98.6875C57.3281 99.7188 58.9219 100.422 60.4219 100.797C61.9219 101.078 63.2344 101.5 64.3594 102.062C65.9531 102.344 67.4062 102.625 68.7188 102.906C70.125 103.094 71.625 103.234 73.2188 103.328C74.25 103.328 75.2344 103.328 76.1719 103.328C77.2031 103.234 78.2344 103.234 79.2656 103.328C82.8281 103.703 86.1562 103.375 89.25 102.344C92.4375 101.219 95.4375 99.8594 98.25 98.2656C99 97.7969 99.75 97.2344 100.5 96.5781C101.344 95.9219 102.188 95.2656 103.031 94.6094C103.781 94.0469 104.672 93.4375 105.703 92.7812C106.734 92.0312 107.766 91.7031 108.797 91.7969C109.266 91.7969 109.688 91.9375 110.062 92.2188C110.531 92.5 111 92.5938 111.469 92.5C112.125 92.9688 112.594 93.5312 112.875 94.1875C113.25 94.75 113.719 95.4062 114.281 96.1562C114.562 96.625 114.938 96.9531 115.406 97.1406C115.875 97.2344 116.344 97.5156 116.812 97.9844ZM6.84375 72.1094C6.5625 72.9531 6.46875 73.7031 6.5625 74.3594C6.75 74.9219 7.07812 75.3438 7.54688 75.625C8.29688 75.625 8.85938 75.2969 9.23438 74.6406C9.60938 73.9844 9.65625 73.2812 9.375 72.5312C9 72.4375 8.625 72.2969 8.25 72.1094C7.96875 71.8281 7.64062 71.7344 7.26562 71.8281L6.84375 72.1094ZM11.9062 89.4062C12.1875 88.375 12.0938 87.5781 11.625 87.0156C11.25 86.3594 10.8281 85.5625 10.3594 84.625C10.1719 84.1562 9.98438 83.6406 9.79688 83.0781C9.70312 82.4219 9.51562 81.8594 9.23438 81.3906C9.04688 80.9219 8.76562 80.5469 8.39062 80.2656C8.10938 79.9844 7.64062 79.8906 6.98438 79.9844C6.89062 80.2656 6.84375 80.5469 6.84375 80.8281C6.84375 81.1094 6.79688 81.3906 6.70312 81.6719C7.17188 82.9844 7.45312 84.3438 7.54688 85.75C7.73438 87.0625 8.34375 88.1875 9.375 89.125C9.75 89.125 10.0312 89.2188 10.2188 89.4062C10.4062 89.5 10.6406 89.5938 10.9219 89.6875L11.9062 89.4062ZM23.2969 29.2188C24.2344 29.3125 25.125 29.2656 25.9688 29.0781C26.9062 28.7969 27.2812 28.0938 27.0938 26.9688C26.3438 26.2187 25.9219 25.75 25.8281 25.5625C24.9844 25.75 24.1875 26.1719 23.4375 26.8281C22.7812 27.3906 22.7344 28.1875 23.2969 29.2188ZM39.3281 19.375C39.7031 19 39.8438 18.4844 39.75 17.8281C39.75 17.0781 39.6094 16.5156 39.3281 16.1406C38.6719 15.5781 37.7344 15.4844 36.5156 15.8594C35.8594 16.0469 35.2031 16.375 34.5469 16.8438C33.9844 17.2187 33.4219 17.5469 32.8594 17.8281C31.1719 18.7656 29.9062 19.6562 29.0625 20.5C28.9688 20.875 28.8281 21.25 28.6406 21.625C28.5469 22 28.5938 22.4219 28.7812 22.8906C29.1562 22.9844 29.4844 23.2188 29.7656 23.5938C30.0469 23.9687 30.4219 24.1562 30.8906 24.1562C31.3594 24.1562 31.7344 23.9219 32.0156 23.4531C32.2969 22.8906 32.625 22.4688 33 22.1875C33.8438 21.3438 34.875 20.8281 36.0938 20.6406C37.4062 20.3594 38.4844 19.9375 39.3281 19.375ZM51.9844 106.844C52.7344 106.656 53.3438 106.375 53.8125 106C54.375 105.531 54.7969 105.062 55.0781 104.594C54.6094 104.031 54 103.75 53.25 103.75C52.5938 103.75 51.8906 103.844 51.1406 104.031C50.3906 104.125 49.5938 104.266 48.75 104.453C48 104.547 47.2969 104.453 46.6406 104.172C45.9844 103.891 45.5156 103.422 45.2344 102.766C45.0469 102.016 44.7188 101.406 44.25 100.938C43.4062 101.688 43.1719 102.578 43.5469 103.609C43.9219 104.641 44.4375 105.297 45.0938 105.578C46.2188 105.953 46.9219 106.328 47.2031 106.703C47.5781 106.984 47.9531 107.125 48.3281 107.125C48.7969 107.219 49.3594 107.219 50.0156 107.125C50.7656 107.031 51.4219 106.938 51.9844 106.844ZM58.3125 107.828C58.5 108.109 58.8281 108.344 59.2969 108.531C59.8594 108.719 60.375 108.812 60.8438 108.812C61.4062 108.812 61.875 108.719 62.25 108.531C62.625 108.25 62.8125 107.781 62.8125 107.125C62.25 107.125 61.9219 107.031 61.8281 106.844C61.7344 106.656 61.5938 106.516 61.4062 106.422C60.8438 106.609 60.2344 106.797 59.5781 106.984C59.0156 107.078 58.5938 107.359 58.3125 107.828ZM101.766 111.625C102.141 111.531 102.609 111.297 103.172 110.922C103.172 110.172 103.125 109.609 103.031 109.234C102.562 109.047 102.094 109.047 101.625 109.234C101.25 109.422 100.922 109.703 100.641 110.078C100.453 110.453 100.406 110.828 100.5 111.203C100.688 111.484 101.109 111.625 101.766 111.625ZM107.25 107.406C108.75 108.25 110.109 108.156 111.328 107.125C112.641 106.094 113.391 104.875 113.578 103.469C113.297 103.281 113.062 103.047 112.875 102.766C112.688 102.484 112.406 102.297 112.031 102.203C111.75 102.109 111.469 102.156 111.188 102.344C111 102.438 110.719 102.484 110.344 102.484C110.156 102.766 109.875 103.047 109.5 103.328C109.125 103.516 108.844 103.797 108.656 104.172C108.375 105.016 108 105.625 107.531 106C107.156 106.375 107.062 106.844 107.25 107.406ZM12.1875 22.4688C10.7812 21.5313 10.3125 20.875 10.7812 20.5C11.3438 20.0312 11.8594 19.5625 12.3281 19.0938C12.8906 18.25 13.2188 17.8281 13.3125 17.8281C13.4062 17.8281 13.5469 17.7812 13.7344 17.6875C14.2031 17.3125 14.5312 17.0313 14.7188 16.8438C15 16.5625 15.375 16.375 15.8438 16.2812C16.4062 16.1875 16.9219 16.2344 17.3906 16.4219C17.8594 16.5156 18.1875 16.8438 18.375 17.4062C18.1875 18.4375 17.625 19.3281 16.6875 20.0781C15.8438 20.7344 15 21.2969 14.1562 21.7656C13.9688 21.8594 13.6406 22.0469 13.1719 22.3281C12.7969 22.5156 12.4688 22.5625 12.1875 22.4688ZM126.938 28.6562C126.938 29.0312 126.891 29.4531 126.797 29.9219C126.797 30.2969 126.703 30.5781 126.516 30.7656C124.922 31.9844 123.797 33.0156 123.141 33.8594C122.484 34.6094 121.781 35.3594 121.031 36.1094C120.75 36.1094 120.188 36.25 119.344 36.5312C118.5 36.7188 118.078 36.4844 118.078 35.8281C117.984 35.6406 118.172 35.3125 118.641 34.8438C119.203 34.2812 119.578 33.8594 119.766 33.5781C120.422 32.9219 120.938 32.3594 121.312 31.8906C121.688 31.4219 121.969 30.7188 122.156 29.7812C122.25 28.5625 122.344 27.8594 122.438 27.6719C122.531 27.4844 122.578 27.2969 122.578 27.1094C122.578 26.9219 122.484 26.6406 122.297 26.2656C122.109 25.8906 121.922 25.6094 121.734 25.4219C121.078 24.3906 120.328 23.5469 119.484 22.8906C118.641 22.2344 117.844 21.4375 117.094 20.5C116.812 20.3125 116.531 20.1719 116.25 20.0781C115.969 19.9844 115.734 19.7969 115.547 19.5156C115.641 19.1406 115.734 18.8594 115.828 18.6719C116.016 18.4844 116.062 18.2031 115.969 17.8281C116.812 17.0781 117.469 17.0313 117.938 17.6875C118.5 18.25 119.016 18.8125 119.484 19.375C119.953 19.75 120.375 20.125 120.75 20.5C121.219 20.7812 121.641 21.0625 122.016 21.3438C122.391 21.5313 122.672 21.7656 122.859 22.0469C123.047 22.3281 123.281 22.6094 123.562 22.8906C124.875 23.9219 125.766 24.9063 126.234 25.8438C126.703 26.6875 126.938 27.625 126.938 28.6562ZM66.6094 33.4375C66.1406 32.7812 66.0938 32.2188 66.4688 31.75C66.8438 31.2812 67.3594 31 68.0156 30.9062C68.7656 30.7188 69.4688 30.7188 70.125 30.9062C70.875 31.0938 71.3438 31.4688 71.5312 32.0312C71.3438 32.9688 70.6406 33.5781 69.4219 33.8594C68.2969 34.1406 67.3594 34 66.6094 33.4375ZM56.2031 37.5156C56.0156 37.7969 55.9219 38.125 55.9219 38.5C55.9219 38.7812 55.7344 39.0156 55.3594 39.2031C55.1719 40.2344 54.9375 41.4062 54.6562 42.7188C54.4688 44.0312 54.375 45.3438 54.375 46.6562C54.4688 47.5938 54.5156 48.625 54.5156 49.75C54.5156 50.875 54.375 51.7656 54.0938 52.4219C53.8125 52.8906 53.4375 53.2188 52.9688 53.4062C52.5938 53.5938 52.2188 53.5938 51.8438 53.4062C51.4688 53.0312 51.2812 52.6094 51.2812 52.1406C51.375 51.5781 51.375 50.9688 51.2812 50.3125C51.1875 49.8438 51.1406 49.4688 51.1406 49.1875C51.1406 48.8125 51.1406 48.3906 51.1406 47.9219C51.2344 47.0781 51.2812 46.2344 51.2812 45.3906C51.2812 44.4531 51.3281 43.6094 51.4219 42.8594C51.7031 39.4844 52.7344 36.7656 54.5156 34.7031C55.5469 34.4219 56.7656 33.9062 58.1719 33.1562C59.5781 32.4062 60.9375 31.9375 62.25 31.75C62.7188 31.6562 63.1406 31.8906 63.5156 32.4531C63.9844 32.9219 64.125 33.3906 63.9375 33.8594C63.4688 34.1406 63.0938 34.4219 62.8125 34.7031C62.5312 34.8906 62.1562 35.0312 61.6875 35.125C61.2188 35.2188 60.75 35.2656 60.2812 35.2656C59.8125 35.1719 59.2969 35.2656 58.7344 35.5469C58.2656 35.7344 57.75 36.0625 57.1875 36.5312C56.7188 36.9062 56.3906 37.2344 56.2031 37.5156ZM110.344 84.625C111.094 85 111.703 85.4219 112.172 85.8906C112.734 86.3594 113.25 86.8281 113.719 87.2969C114 88.0469 114.328 88.6094 114.703 88.9844C115.172 89.3594 115.453 89.9219 115.547 90.6719C114.422 90.5781 113.578 90.25 113.016 89.6875C112.547 89.125 111.984 88.6094 111.328 88.1406C110.766 88.1406 110.25 88.0469 109.781 87.8594C109.406 87.6719 108.984 87.5781 108.516 87.5781C107.766 87.7656 107.156 88.1406 106.688 88.7031C106.312 89.2656 105.797 89.5938 105.141 89.6875C103.172 90.9062 101.438 91.9375 99.9375 92.7812C98.4375 93.625 96.8906 94.5625 95.2969 95.5938C94.8281 95.7812 94.3594 95.9219 93.8906 96.0156C93.4219 96.1094 92.9531 96.2969 92.4844 96.5781C92.0156 96.7656 91.5938 97 91.2188 97.2812C90.8438 97.5625 90.3281 97.7031 89.6719 97.7031C89.3906 97.6094 89.0625 97.4688 88.6875 97.2812C88.3125 97 88.125 96.7188 88.125 96.4375C88.125 95.9688 88.4531 95.5469 89.1094 95.1719C89.7656 94.7969 90.3281 94.6094 90.7969 94.6094C91.2656 94.6094 91.6406 94.7031 91.9219 94.8906C92.2031 95.0781 92.5781 95.0781 93.0469 94.8906C94.1719 94.5156 95.2969 93.9062 96.4219 93.0625C97.5469 92.125 98.625 91.4688 99.6562 91.0938C100.594 89.875 101.719 88.9375 103.031 88.2812C104.438 87.5312 105.609 86.5938 106.547 85.4688C107.109 85.2812 107.672 85.0938 108.234 84.9062C108.797 84.625 109.5 84.5312 110.344 84.625ZM92.9062 124.984C93.0938 125.172 93.0938 125.453 92.9062 125.828C92.8125 126.297 92.8125 126.719 92.9062 127.094C92.25 127.375 91.5469 127.422 90.7969 127.234C90.0469 127.141 89.2969 127.094 88.5469 127.094C87.8906 127 86.9531 127.047 85.7344 127.234C84.6094 127.422 83.6719 127.609 82.9219 127.797C82.4531 127.891 81.9844 127.984 81.5156 128.078C81.1406 128.266 80.7188 128.453 80.25 128.641C79.5 128.922 78.75 129.062 78 129.062C77.25 129.156 76.5469 129.344 75.8906 129.625C74.0156 129.438 72.1875 129.484 70.4062 129.766C68.7188 130.141 67.0312 130.281 65.3438 130.188C63.9375 129.906 62.5781 129.906 61.2656 130.188C60.0469 130.375 58.8281 130.469 57.6094 130.469C56.3906 130.469 55.2188 130.562 54.0938 130.75C53.1562 130.281 52.0781 130.094 50.8594 130.188C49.6406 130.281 48.4219 130.281 47.2031 130.188C46.9219 129.812 46.2656 129.625 45.2344 129.625C45.0469 129.156 44.7188 128.781 44.25 128.5C43.875 128.219 43.6406 127.75 43.5469 127.094C43.7344 126.531 44.1094 126.344 44.6719 126.531C45.2344 126.719 45.75 126.719 46.2188 126.531C47.3438 126.906 48.6094 127.234 50.0156 127.516C51.4219 127.797 52.875 128.031 54.375 128.219C54.8438 128.312 55.3125 128.312 55.7812 128.219C56.25 128.125 56.7188 128.078 57.1875 128.078C57.4688 128.078 57.75 128.125 58.0312 128.219C58.3125 128.312 58.5469 128.406 58.7344 128.5C60.6094 128.5 62.1562 128.266 63.375 127.797C63.8438 127.609 64.2188 127.281 64.5 126.812C64.875 126.438 65.2969 126.156 65.7656 125.969C69.1406 126.156 72.5625 126.25 76.0312 126.25C79.5938 126.25 82.9688 125.875 86.1562 125.125C86.9062 124.938 87.5625 124.75 88.125 124.562C88.7812 124.375 89.4844 124.281 90.2344 124.281C90.6094 124.188 91.0781 124.188 91.6406 124.281C92.2969 124.469 92.7188 124.703 92.9062 124.984ZM117.656 39.3438C117.469 40 117.141 40.6562 116.672 41.3125C116.203 41.9688 115.688 42.3906 115.125 42.5781C114.188 42.8594 113.578 42.7188 113.297 42.1562C113.016 41.5938 112.969 40.9844 113.156 40.3281C113.438 39.6719 113.859 39.1094 114.422 38.6406C115.078 38.0781 115.828 37.9844 116.672 38.3594L117.656 39.3438ZM139.594 20.3594C139.406 19.6094 139.359 18.8594 139.453 18.1094C139.641 17.2656 139.734 16.4219 139.734 15.5781C139.734 14.8281 139.594 14.125 139.312 13.4688C139.125 12.8125 139.078 12.1094 139.172 11.3594C139.828 9.85938 140.672 9.0625 141.703 8.96875C142.828 8.78125 143.812 8.875 144.656 9.25C144.75 9.53125 144.891 9.8125 145.078 10.0938C145.266 10.375 145.406 10.6562 145.5 10.9375C145.312 11.125 145.078 11.1719 144.797 11.0781C144.516 10.9844 144.234 10.9375 143.953 10.9375C143.203 11.2188 142.688 11.6875 142.406 12.3438C142.125 13 141.984 13.75 141.984 14.5938C141.891 15.625 141.891 16.7969 141.984 18.1094C142.172 19.4219 142.266 20.5469 142.266 21.4844C142.359 22.4219 142.172 22.9844 141.703 23.1719C141.047 22.7969 140.672 22.5625 140.578 22.4688C140.484 22.2812 140.438 22.0469 140.438 21.7656C140.25 21.5781 140.062 21.3906 139.875 21.2031C139.781 20.9219 139.688 20.6406 139.594 20.3594ZM273.75 109.516C272.625 109.891 271.688 109.938 270.938 109.656C270.188 109.375 269.484 109 268.828 108.531C268.172 107.969 267.469 107.5 266.719 107.125C266.062 106.656 265.266 106.469 264.328 106.562C263.578 106.656 262.969 106.891 262.5 107.266C262.031 107.641 261.562 108.016 261.094 108.391C260.156 109.047 259.078 109.656 257.859 110.219C256.922 110.219 256.078 110.172 255.328 110.078C254.578 109.984 253.828 110.125 253.078 110.5C251.953 110.312 251.016 110.266 250.266 110.359C249.516 110.453 248.625 110.453 247.594 110.359C247.312 110.266 246.891 110.312 246.328 110.5C245.859 110.594 245.391 110.688 244.922 110.781C244.547 110.875 244.172 110.922 243.797 110.922C243.422 110.828 243 110.828 242.531 110.922C242.156 110.922 241.781 110.969 241.406 111.062C241.031 111.156 240.609 111.156 240.141 111.062C238.266 110.969 236.625 110.969 235.219 111.062C233.812 111.062 232.922 110.453 232.547 109.234C232.359 108.766 232.266 108.25 232.266 107.688C232.266 107.125 232.219 106.469 232.125 105.719C231.938 104.312 231.703 102.719 231.422 100.938C231.234 99.1562 231.234 97.4688 231.422 95.875C231.516 94.8438 231.516 93.7656 231.422 92.6406C231.328 91.5156 231.234 90.3906 231.141 89.2656C231.141 86.0781 230.766 82.9844 230.016 79.9844C227.578 78.9531 225.047 78.5312 222.422 78.7188C221.672 78.7188 221.016 78.7656 220.453 78.8594C219.891 78.9531 219.328 78.9062 218.766 78.7188C218.203 78.625 217.641 78.5312 217.078 78.4375C216.609 78.3438 216.047 78.2969 215.391 78.2969C214.641 78.2969 213.844 78.3906 213 78.5781C212.25 78.7656 211.5 78.7656 210.75 78.5781C210.281 78.4844 209.859 78.3438 209.484 78.1562C209.109 77.875 208.781 77.6406 208.5 77.4531C207.938 76.7969 207.562 76.1406 207.375 75.4844C207.188 74.7344 206.484 74.4531 205.266 74.6406C204.797 75.3906 204.422 76.0938 204.141 76.75C203.859 77.4062 203.203 77.9219 202.172 78.2969C201.703 78.3906 201.281 78.4375 200.906 78.4375C200.531 78.4375 200.109 78.5312 199.641 78.7188C199.078 78.9062 198.469 79.1406 197.812 79.4219C197.25 79.7031 196.641 79.9375 195.984 80.125C195.891 80.875 195.891 81.5781 195.984 82.2344C196.172 82.8906 196.125 83.5469 195.844 84.2031C195.656 84.6719 195.422 85.0938 195.141 85.4688C194.859 85.8438 194.719 86.2656 194.719 86.7344C194.719 87.0156 194.859 87.3906 195.141 87.8594C195.422 88.2344 195.656 88.6094 195.844 88.9844C195.938 89.6406 195.891 90.3906 195.703 91.2344C195.609 92.0781 195.469 92.875 195.281 93.625C195.188 93.9062 195.141 94.1875 195.141 94.4688C195.141 94.75 195.047 95.0312 194.859 95.3125C194.391 97.1875 194.391 98.5469 194.859 99.3906C195.047 99.8594 195.234 100.234 195.422 100.516C195.703 100.703 195.938 100.984 196.125 101.359C196.312 102.109 196.359 102.859 196.266 103.609C196.266 104.266 196.312 104.969 196.406 105.719C196.406 106.188 196.5 106.75 196.688 107.406C196.875 108.062 196.875 108.625 196.688 109.094C196.5 109.469 196.219 109.797 195.844 110.078C195.469 110.266 195.188 110.594 195 111.062C194.344 111.25 193.828 111.531 193.453 111.906C193.172 112.281 192.797 112.609 192.328 112.891C191.297 113.078 190.219 113.266 189.094 113.453C187.969 113.641 186.891 113.547 185.859 113.172C184.641 113.359 183.281 113.5 181.781 113.594C180.375 113.594 179.062 113.688 177.844 113.875C177.094 113.312 176.344 112.703 175.594 112.047C174.844 111.391 173.859 111.438 172.641 112.188C172.172 112.375 171.797 112.656 171.516 113.031C171.328 113.406 171 113.688 170.531 113.875C169.5 113.781 168.75 113.828 168.281 114.016C167.906 114.109 167.578 114.156 167.297 114.156C167.016 114.156 166.734 114.109 166.453 114.016C166.172 113.922 165.891 113.875 165.609 113.875C165.047 113.781 164.484 113.828 163.922 114.016C163.359 114.203 162.703 114.25 161.953 114.156C160.734 114.062 159.75 114.156 159 114.438C158.25 114.625 157.5 114.625 156.75 114.438C156.094 113.969 155.344 113.688 154.5 113.594C153.75 113.406 153.094 113.078 152.531 112.609C151.875 112.047 151.125 111.109 150.281 109.797C149.719 107.547 149.344 105.25 149.156 102.906C149.062 100.469 149.016 98.0781 149.016 95.7344C149.016 93.3906 148.969 91.0938 148.875 88.8438C148.781 86.5938 148.547 84.4375 148.172 82.375C147.141 82.375 146.203 82.375 145.359 82.375C144.516 82.2812 143.484 82.2812 142.266 82.375C141.422 82.375 140.531 82.375 139.594 82.375C138.75 82.2812 138.188 81.8125 137.906 80.9688C137.719 80.7812 137.625 80.4531 137.625 79.9844C137.625 79.5156 137.578 79.0469 137.484 78.5781C137.391 77.8281 137.344 77.2188 137.344 76.75C137.344 76.2812 137.297 75.625 137.203 74.7812C137.109 73.375 137.344 72.3906 137.906 71.8281C138.469 71.1719 138.703 70.4688 138.609 69.7188C138.609 69.4375 138.422 69.1562 138.047 68.875C137.766 68.5938 137.531 68.3125 137.344 68.0312C136.875 66.8125 136.734 65.5469 136.922 64.2344C137.109 62.9219 137.719 61.9844 138.75 61.4219C139.688 60.9531 140.719 60.5781 141.844 60.2969C142.969 60.0156 144.141 59.8281 145.359 59.7344C145.828 59.7344 146.25 59.7344 146.625 59.7344C147 59.7344 147.375 59.5938 147.75 59.3125C147.656 58.1875 147.656 57.1562 147.75 56.2188C147.844 55.1875 147.891 54.1562 147.891 53.125C147.891 51.8125 147.797 50.5938 147.609 49.4688C147.422 48.25 147.281 47.0312 147.188 45.8125C147.188 45.5312 147.234 45.25 147.328 44.9688C147.422 44.6875 147.469 44.4062 147.469 44.125C147.375 43.5625 147.234 43.0469 147.047 42.5781C146.953 42.0156 146.859 41.4531 146.766 40.8906C146.859 39.4844 146.766 37.8438 146.484 35.9688C146.297 34.0938 146.297 32.4531 146.484 31.0469C146.578 30.2031 146.672 29.6406 146.766 29.3594C146.953 28.9844 147.328 28.6094 147.891 28.2344C148.172 26.7344 147.984 25.6562 147.328 25C146.766 24.25 146.25 23.4531 145.781 22.6094C145.781 20.8281 145.734 19.1875 145.641 17.6875C145.547 16.0937 145.922 14.7813 146.766 13.75C146.953 13.5625 147.188 13.4219 147.469 13.3281C147.75 13.1406 147.984 12.9062 148.172 12.625C149.484 11.875 150.844 11.4063 152.25 11.2188C153.656 11.0312 155.391 10.8438 157.453 10.6562C157.922 10.6562 158.344 10.6094 158.719 10.5156C159.094 10.4219 159.516 10.375 159.984 10.375C160.547 10.2813 161.109 10.2813 161.672 10.375C162.328 10.4687 162.938 10.5156 163.5 10.5156C163.969 10.5156 164.391 10.5156 164.766 10.5156C165.141 10.4219 165.562 10.375 166.031 10.375C167.062 10.2813 168.188 10.2344 169.406 10.2344C170.625 10.2344 171.891 10.1875 173.203 10.0938C173.484 10.0938 173.766 10.0469 174.047 9.95312C174.328 9.76562 174.562 9.67188 174.75 9.67188C175.406 9.76562 175.828 9.76562 176.016 9.67188C176.203 9.57813 176.391 9.53125 176.578 9.53125C177.047 9.4375 177.609 9.4375 178.266 9.53125C178.922 9.53125 179.578 9.4375 180.234 9.25C181.359 9.71875 182.109 10.2344 182.484 10.7969C182.859 11.2656 183.375 11.6406 184.031 11.9219C185.531 11.9219 186.938 11.5 188.25 10.6562C188.625 10.8438 188.953 10.8906 189.234 10.7969C189.609 10.6094 189.984 10.5156 190.359 10.5156C190.922 10.6094 191.484 10.8906 192.047 11.3594C192.609 11.8281 192.938 12.25 193.031 12.625C192.938 14.0312 192.891 15.1562 192.891 16C192.891 16.8438 192.938 17.6406 193.031 18.3906C193.125 19.3281 193.266 20.3594 193.453 21.4844C193.641 22.6094 193.734 23.6875 193.734 24.7188C193.734 25.6562 193.688 26.5938 193.594 27.5312C193.5 28.4688 193.5 29.3125 193.594 30.0625C193.688 31.1875 193.688 31.8906 193.594 32.1719C193.5 32.4531 193.406 32.6875 193.312 32.875C192.938 34.0938 192.656 34.7969 192.469 34.9844C192.375 35.1719 192.281 35.3594 192.188 35.5469C192 36.0156 192.047 36.625 192.328 37.375C192.609 38.0312 192.844 38.6406 193.031 39.2031C193.688 40.3281 193.969 41.0781 193.875 41.4531C193.875 41.7344 193.875 42.0625 193.875 42.4375C193.875 43.1875 193.969 43.9844 194.156 44.8281C194.344 45.6719 194.438 46.4688 194.438 47.2188C194.531 48.9062 194.578 50.6875 194.578 52.5625C194.672 54.3438 194.812 56.0312 195 57.625C196.5 58.2812 198.281 58.4688 200.344 58.1875C202.406 57.9062 204.422 57.6719 206.391 57.4844C206.859 57.4844 207.328 57.5312 207.797 57.625C208.359 57.625 208.875 57.625 209.344 57.625C209.906 57.5312 210.422 57.4844 210.891 57.4844C211.453 57.3906 212.016 57.2969 212.578 57.2031C213.891 57.1094 215.203 57.0156 216.516 56.9219C217.922 56.8281 219.281 56.7812 220.594 56.7812C221.625 56.7812 222.469 56.7812 223.125 56.7812C223.875 56.6875 224.766 56.5938 225.797 56.5C226.547 56.4062 227.391 56.3594 228.328 56.3594C229.266 56.2656 229.875 55.8906 230.156 55.2344C229.969 54.3906 229.781 53.5 229.594 52.5625C229.5 51.625 229.547 50.7812 229.734 50.0312C230.297 48.3438 230.578 47.125 230.578 46.375C230.672 45.625 230.812 44.9219 231 44.2656C231.188 43.7969 231.328 43.3281 231.422 42.8594C231.609 42.3906 231.656 41.7812 231.562 41.0312C231.375 40 231.047 39.1094 230.578 38.3594C230.203 37.5156 229.781 36.625 229.312 35.6875C229.219 33.5312 229.219 31.3281 229.312 29.0781C229.5 26.7344 229.453 24.3438 229.172 21.9062C228.984 21.1562 228.844 20.4531 228.75 19.7969C228.656 19.0469 228.562 18.2969 228.469 17.5469C228.375 17.0781 228.234 16.6562 228.047 16.2812C227.859 15.9063 227.812 15.5312 227.906 15.1562C227.906 14.875 228.047 14.5469 228.328 14.1719C228.703 13.7969 228.984 13.4219 229.172 13.0469C229.359 12.7656 229.594 12.4375 229.875 12.0625C230.156 11.6875 230.438 11.4063 230.719 11.2188C231.094 11.0312 231.516 10.9375 231.984 10.9375C232.547 10.8438 233.062 10.7031 233.531 10.5156C234.094 10.3281 234.609 10.0938 235.078 9.8125C235.547 9.4375 235.875 9.25 236.062 9.25C236.344 9.15625 236.625 9.15625 236.906 9.25C237.281 9.34375 237.609 9.39062 237.891 9.39062C238.453 9.29688 239.016 9.15625 239.578 8.96875C240.234 8.78125 240.844 8.6875 241.406 8.6875C241.781 8.6875 242.109 8.73438 242.391 8.82812C242.766 8.92187 243.094 8.96875 243.375 8.96875C243.844 8.96875 244.312 8.92187 244.781 8.82812C245.25 8.64062 245.766 8.54688 246.328 8.54688C246.891 8.45313 247.453 8.5 248.016 8.6875C248.578 8.78125 249.094 8.78125 249.562 8.6875C249.938 8.59375 250.266 8.5 250.547 8.40625C250.828 8.3125 251.156 8.26562 251.531 8.26562C252.375 8.17188 253.172 8.17188 253.922 8.26562C254.766 8.35937 255.562 8.40625 256.312 8.40625C256.5 8.125 256.875 8.03125 257.438 8.125C258.094 8.21875 258.516 8.17188 258.703 7.98438C259.172 8.17188 259.594 8.21875 259.969 8.125C260.344 7.9375 260.766 7.89063 261.234 7.98438C261.703 7.98438 262.125 8.21875 262.5 8.6875C262.969 9.15625 263.391 9.53125 263.766 9.8125C264.234 10.2813 264.656 10.7031 265.031 11.0781C265.5 11.3594 265.969 11.5937 266.438 11.7812C267.469 11.7812 268.641 11.9219 269.953 12.2031C270.422 12.3906 270.984 12.5313 271.641 12.625C272.297 12.7187 272.766 12.9062 273.047 13.1875C273.422 13.6563 273.609 14.3594 273.609 15.2969C273.609 16.2344 273.703 17.125 273.891 17.9688C274.266 20.6875 274.406 23.0781 274.312 25.1406C274.219 27.1094 274.266 29.2188 274.453 31.4688C274.641 32.7812 274.734 34.0938 274.734 35.4062C274.828 36.7188 274.922 38.0312 275.016 39.3438C275.109 40.375 275.109 41.4062 275.016 42.4375C274.922 43.4688 274.875 44.5 274.875 45.5312C274.969 46.5625 275.062 47.7344 275.156 49.0469C275.344 50.3594 275.438 51.5312 275.438 52.5625C275.438 53.5938 275.391 54.7188 275.297 55.9375C275.297 57.0625 275.391 58.2812 275.578 59.5938C273.891 61.5625 273.375 63.8125 274.031 66.3438C274.219 66.8125 274.406 67.1875 274.594 67.4688C274.875 67.75 275.109 68.0781 275.297 68.4531C275.766 69.2031 276.047 69.9062 276.141 70.5625C276.234 71.2188 276.281 72.0625 276.281 73.0938C276.375 74.125 276.422 75.25 276.422 76.4688C276.516 77.5938 276.469 78.6719 276.281 79.7031C276.656 81.4844 276.844 83.2656 276.844 85.0469C276.938 86.7344 277.031 88.6094 277.125 90.6719C277.125 91.4219 277.078 92.2188 276.984 93.0625C276.984 93.8125 277.031 94.5625 277.125 95.3125C277.219 95.5938 277.219 95.875 277.125 96.1562C277.125 96.4375 277.172 96.7656 277.266 97.1406C277.266 97.4219 277.312 97.75 277.406 98.125C277.5 98.4062 277.547 98.6875 277.547 98.9688C277.547 99.25 277.5 99.5781 277.406 99.9531C277.312 100.234 277.266 100.516 277.266 100.797C278.016 103.234 277.828 105.109 276.703 106.422C275.578 107.641 274.594 108.672 273.75 109.516ZM149.578 75.9062C149.578 75.7188 149.438 75.3906 149.156 74.9219C148.969 74.3594 148.781 73.9844 148.594 73.7969C148.406 73.5156 148.219 73.3281 148.031 73.2344C147.844 73.0469 147.656 72.8594 147.469 72.6719C146.812 72.6719 146.297 72.4375 145.922 71.9688C145.547 71.5 144.984 71.3594 144.234 71.5469C143.484 71.8281 143.109 72.5781 143.109 73.7969C143.109 75.0156 143.297 75.9531 143.672 76.6094C144.141 76.7031 144.469 76.8906 144.656 77.1719C144.938 77.3594 145.266 77.5 145.641 77.5938C146.391 77.6875 147.188 77.5469 148.031 77.1719C148.969 76.7969 149.484 76.375 149.578 75.9062ZM162.234 20.5C162.797 20.125 163.266 19.5156 163.641 18.6719C164.016 17.7344 163.969 16.8906 163.5 16.1406C162.656 16.2344 161.719 16.2344 160.688 16.1406C159.75 16.0469 158.766 16 157.734 16C156.797 15.9063 155.859 15.9531 154.922 16.1406C153.984 16.2344 153.188 16.5625 152.531 17.125C152.062 17.6875 151.922 18.3437 152.109 19.0938C152.391 19.75 152.625 20.3594 152.812 20.9219C153 21.5781 153.094 22.1875 153.094 22.75C153.188 23.2188 153.422 23.5469 153.797 23.7344C154.734 23.7344 155.625 23.4062 156.469 22.75C156.75 22.4688 156.938 22.0938 157.031 21.625C157.219 21.1562 157.406 20.8281 157.594 20.6406C158.156 20.1719 158.812 20.0781 159.562 20.3594C160.406 20.6406 161.297 20.6875 162.234 20.5ZM175.453 106.422C175.922 105.672 175.969 105.062 175.594 104.594C175.219 104.031 174.891 103.609 174.609 103.328C174.047 103.234 173.484 103.281 172.922 103.469C172.359 103.656 171.984 103.938 171.797 104.312C171.234 105.344 171.469 106 172.5 106.281C173.625 106.469 174.609 106.516 175.453 106.422ZM173.625 17.9688C173.625 17.2187 173.25 16.6562 172.5 16.2812C171.75 15.9063 171 15.7188 170.25 15.7188C169.5 16.0937 168.797 16.5156 168.141 16.9844C167.484 17.3594 167.203 17.875 167.297 18.5312C167.297 18.9062 167.672 19.375 168.422 19.9375C169.266 20.5 169.828 20.7812 170.109 20.7812C170.859 20.875 171.609 20.5937 172.359 19.9375C173.109 19.2813 173.531 18.625 173.625 17.9688ZM188.812 104.031C189 103.75 189.047 103.469 188.953 103.188C188.859 102.906 188.812 102.625 188.812 102.344C188.812 101.781 188.766 101.125 188.672 100.375C188.672 99.625 188.578 98.9219 188.391 98.2656C188.297 97.5156 188.062 96.9531 187.688 96.5781C187.312 96.1094 186.797 95.9688 186.141 96.1562C185.578 97.8438 185.203 99.25 185.016 100.375C184.828 101.406 184.359 102.297 183.609 103.047C182.859 103.141 182.25 103.703 181.781 104.734C181.406 105.672 181.594 106.422 182.344 106.984C182.812 107.359 183.609 107.5 184.734 107.406C185.859 107.312 186.656 107.125 187.125 106.844C187.312 106.75 187.453 106.562 187.547 106.281C187.641 105.906 187.781 105.625 187.969 105.438C188.156 105.25 188.344 105.016 188.531 104.734C188.719 104.453 188.812 104.219 188.812 104.031ZM239.016 63.1094C239.297 62.8281 239.625 62.3594 240 61.7031C240.375 61.0469 240.656 60.3438 240.844 59.5938C241.125 58.75 241.266 57.9531 241.266 57.2031C241.266 56.4531 241.078 55.7969 240.703 55.2344C240.234 54.7656 239.672 54.5312 239.016 54.5312C238.359 54.4375 237.844 54.625 237.469 55.0938C237.094 56.0312 236.859 56.9688 236.766 57.9062C236.672 58.75 236.391 59.5 235.922 60.1562C235.359 60.9062 234.562 61.375 233.531 61.5625C232.5 61.75 231.469 62.0781 230.438 62.5469C230.25 63.2031 230.344 63.7656 230.719 64.2344C231.188 64.7031 231.656 64.9375 232.125 64.9375C233.906 64.5625 235.266 64.2812 236.203 64.0938C237.234 63.8125 238.172 63.4844 239.016 63.1094ZM242.812 18.25C243.656 18.0625 244.219 17.6875 244.5 17.125C244.406 16.6562 244.312 16.1406 244.219 15.5781C244.125 15.0156 243.844 14.6406 243.375 14.4531C242.062 14.6406 241.031 14.7344 240.281 14.7344C239.625 14.6406 238.922 14.6406 238.172 14.7344C236.953 14.8281 235.969 15.3906 235.219 16.4219C234.469 17.3594 234.281 18.4844 234.656 19.7969C234.844 20.3594 235.078 21.1094 235.359 22.0469C235.734 22.9844 236.25 23.5 236.906 23.5938C237.281 23.5938 237.609 23.4531 237.891 23.1719C238.172 22.8906 238.5 22.6563 238.875 22.4688C238.875 20.6875 239.203 19.5625 239.859 19.0938C240.234 18.9062 240.562 18.8594 240.844 18.9531C241.125 18.9531 241.5 18.9062 241.969 18.8125L242.812 18.25ZM253.219 16.9844C253.219 16.3281 253.125 15.7656 252.938 15.2969C252.844 14.8281 252.516 14.5 251.953 14.3125C250.641 14.6875 249.75 15.1562 249.281 15.7188C248.812 16.2812 248.531 17.0313 248.438 17.9688C249.188 18.25 249.984 18.2969 250.828 18.1094C251.766 17.8281 252.562 17.4531 253.219 16.9844ZM271.078 100.516C271.266 99.6719 271.266 98.9219 271.078 98.2656C270.984 97.5156 270.891 96.8125 270.797 96.1562C269.766 95.875 268.922 96.1094 268.266 96.8594C267.609 97.5156 267.375 98.2656 267.562 99.1094C267.938 99.9531 268.125 100.469 268.125 100.656C268.219 100.844 268.5 100.984 268.969 101.078C269.344 100.891 269.672 100.797 269.953 100.797C270.234 100.797 270.609 100.703 271.078 100.516ZM268.266 9.67188C267.984 9.48437 267.703 9.29688 267.422 9.10938C267.234 8.82812 267 8.59375 266.719 8.40625C267.188 7.09375 267.797 6.53125 268.547 6.71875C269.391 6.8125 270.234 6.90625 271.078 7C272.016 7 272.578 7.04688 272.766 7.14062C272.953 7.23437 273.141 7.32813 273.328 7.42188C274.078 7.60938 274.922 7.89063 275.859 8.26562C276.797 8.54688 277.359 9.0625 277.547 9.8125C277.734 10.8438 277.594 11.6406 277.125 12.2031C276.75 12.7656 276.656 13.6094 276.844 14.7344C275.719 14.7344 275.156 14.3594 275.156 13.6094C275.25 12.7656 275.25 11.9219 275.156 11.0781C274.688 10.7969 274.266 10.75 273.891 10.9375C273.516 11.125 273.094 11.1719 272.625 11.0781C271.5 10.6094 270.609 10.3281 269.953 10.2344C269.297 10.1406 268.734 9.95312 268.266 9.67188ZM216.938 54.1094C216.562 52.4219 216.656 51.4844 217.219 51.2969C217.875 51.1094 218.672 50.8281 219.609 50.4531C219.984 50.2656 220.406 50.125 220.875 50.0312C221.344 49.9375 221.812 49.7969 222.281 49.6094C222.562 49.4219 222.938 49.0938 223.406 48.625C223.875 48.1562 224.203 47.7344 224.391 47.3594C224.766 46.3281 224.859 45.25 224.672 44.125C224.578 42.9062 224.719 41.7344 225.094 40.6094C224.531 40.6094 224.109 40.4688 223.828 40.1875C223.641 39.9062 223.547 39.5781 223.547 39.2031C223.641 38.7344 223.781 38.3125 223.969 37.9375C224.25 37.5625 224.578 37.3281 224.953 37.2344C225.328 37.4219 225.656 37.6562 225.938 37.9375C226.219 38.125 226.5 38.3125 226.781 38.5C226.781 38.7812 226.734 39.0625 226.641 39.3438C226.547 39.625 226.547 39.9062 226.641 40.1875C226.734 40.6562 226.922 41.0781 227.203 41.4531C227.484 41.8281 227.672 42.25 227.766 42.7188C227.859 43.375 227.812 44.0781 227.625 44.8281C227.531 45.5781 227.438 46.2344 227.344 46.7969C227.156 47.6406 227.016 48.4844 226.922 49.3281C226.828 50.0781 226.547 50.8281 226.078 51.5781C224.953 52.3281 223.547 52.8906 221.859 53.2656C220.266 53.6406 218.625 53.9219 216.938 54.1094ZM282.469 73.0938C282.938 73.5625 283.266 74.4531 283.453 75.7656C283.734 77.0781 283.828 78.25 283.734 79.2812C283.641 80.125 283.453 80.9219 283.172 81.6719C282.891 82.3281 282.562 82.8906 282.188 83.3594C281.812 83.1719 281.484 83.0312 281.203 82.9375C280.922 82.8438 280.688 82.7031 280.5 82.5156C280.312 82.0469 280.312 81.625 280.5 81.25C280.688 80.7812 280.781 80.3125 280.781 79.8438C280.312 78.625 280.125 77.7344 280.219 77.1719C280.406 76.6094 280.5 76.0469 280.5 75.4844C280.406 75.0156 280.359 74.5469 280.359 74.0781C280.359 73.5156 280.547 73.1406 280.922 72.9531C281.109 72.8594 281.344 72.8594 281.625 72.9531C282 72.9531 282.281 73 282.469 73.0938ZM143.531 87.5781C143.719 88.3281 143.484 88.9375 142.828 89.4062C142.266 89.7812 141.516 90.0625 140.578 90.25C139.734 90.3438 138.844 90.3438 137.906 90.25C136.969 90.1562 136.266 89.9688 135.797 89.6875C134.953 89.4062 134.391 89.2188 134.109 89.125C134.109 88 133.828 86.6406 133.266 85.0469C132.703 83.4531 132.516 82.0938 132.703 80.9688C132.797 80.5 133.031 80.125 133.406 79.8438C133.875 79.5625 134.344 79.5625 134.812 79.8438C135 80.4062 135.047 81.0156 134.953 81.6719C134.953 82.2344 135.047 82.75 135.234 83.2188C135.422 83.9688 135.938 84.6719 136.781 85.3281C137.625 85.8906 138.422 86.4062 139.172 86.875C139.547 86.875 139.969 86.875 140.438 86.875C140.906 86.7812 141.328 86.7344 141.703 86.7344C142.172 86.7344 142.547 86.7812 142.828 86.875C143.203 86.9688 143.438 87.2031 143.531 87.5781ZM219.891 82.2344C220.078 82.4219 220.219 82.75 220.312 83.2188C220.5 83.5938 220.5 83.9219 220.312 84.2031C218.25 84.7656 216.047 84.9062 213.703 84.625C211.453 84.3438 209.109 84.0625 206.672 83.7812C205.547 84.0625 204.328 84.2969 203.016 84.4844C201.797 84.6719 200.766 84.4844 199.922 83.9219C199.734 83.1719 199.828 82.5625 200.203 82.0938C200.578 81.625 201.141 81.2969 201.891 81.1094C202.453 80.9219 202.969 80.8281 203.438 80.8281C204.094 80.7344 204.422 80.6406 204.422 80.5469C204.516 80.4531 204.656 80.3125 204.844 80.125C205.594 79.375 206.484 79.0469 207.516 79.1406C207.703 79.4219 207.844 79.75 207.938 80.125C208.031 80.5 208.266 80.7812 208.641 80.9688C209.484 80.7812 210.328 80.7344 211.172 80.8281C212.109 80.8281 212.859 81.0625 213.422 81.5312C214.453 81.5312 215.484 81.7188 216.516 82.0938C217.641 82.375 218.766 82.4219 219.891 82.2344ZM281.484 88.2812C281.953 88.0938 282.469 88.0938 283.031 88.2812C283.406 89.125 283.547 90.1094 283.453 91.2344C283.453 92.3594 283.453 93.5312 283.453 94.75C283.453 96.3438 283.453 98.0312 283.453 99.8125C283.547 101.594 283.547 103.375 283.453 105.156C283.453 106.188 283.453 107.172 283.453 108.109C283.547 109.047 283.5 109.844 283.312 110.5C283.219 110.688 283.031 110.922 282.75 111.203C282.562 111.391 282.375 111.625 282.188 111.906C281.812 112.375 281.531 112.844 281.344 113.312C281.25 113.688 281.016 113.969 280.641 114.156C279.984 114.625 279.188 114.859 278.25 114.859C277.406 114.766 276.422 114.812 275.297 115C274.734 115.094 273.797 115.281 272.484 115.562C271.172 115.844 270.094 115.75 269.25 115.281C268.688 114.25 268.359 113.641 268.266 113.453C268.172 113.266 268.219 113.031 268.406 112.75C269.156 112.281 269.953 112.188 270.797 112.469C271.734 112.656 272.625 112.703 273.469 112.609C274.5 112.422 275.438 112.141 276.281 111.766C277.125 111.391 277.922 111.109 278.672 110.922C279.328 110.172 279.938 109.328 280.5 108.391C281.062 107.453 281.297 106.234 281.203 104.734C281.109 104.359 281.016 103.984 280.922 103.609C280.828 103.234 280.781 102.859 280.781 102.484C280.688 101.734 280.641 100.984 280.641 100.234C280.734 99.4844 280.781 98.7344 280.781 97.9844C280.875 97.1406 280.969 96.25 281.062 95.3125C281.156 94.375 281.25 93.4375 281.344 92.5C281.344 91.75 281.297 91.0469 281.203 90.3906C281.203 89.6406 281.297 88.9375 281.484 88.2812ZM162.234 116.266C162.703 116.266 163.5 116.172 164.625 115.984C165.75 115.797 166.359 115.938 166.453 116.406C166.641 116.875 166.453 117.344 165.891 117.812C165.422 118.375 165 118.703 164.625 118.797C163.781 118.984 162.984 118.984 162.234 118.797C161.578 118.703 160.781 118.609 159.844 118.516C159.469 118.516 159.094 118.562 158.719 118.656C158.344 118.75 157.969 118.797 157.594 118.797C155.625 118.703 154.031 118.75 152.812 118.938C151.594 119.219 150.375 119.125 149.156 118.656C148.406 118.844 147.844 118.703 147.469 118.234C147.094 117.859 146.625 117.672 146.062 117.672C145.781 117.016 145.5 116.219 145.219 115.281C144.938 114.438 144.797 113.5 144.797 112.469C144.797 111.156 144.656 109.891 144.375 108.672C144.188 107.453 143.953 106.281 143.672 105.156C143.859 104.688 144.141 104.172 144.516 103.609C144.891 103.047 145.406 103 146.062 103.469C146.438 104.312 146.531 105.25 146.344 106.281C146.156 107.219 146.203 108.109 146.484 108.953C146.578 109.422 146.766 109.844 147.047 110.219C147.422 110.594 147.562 111.016 147.469 111.484C147.938 112.234 148.406 112.938 148.875 113.594C149.438 114.25 150.094 114.812 150.844 115.281C151.219 115.188 151.5 115.234 151.688 115.422C151.969 115.609 152.25 115.75 152.531 115.844C153.75 115.938 154.5 116.031 154.781 116.125C155.062 116.312 155.344 116.453 155.625 116.547C156.375 116.641 157.172 116.547 158.016 116.266C158.859 116.078 159.656 116.031 160.406 116.125C160.688 116.125 160.969 116.125 161.25 116.125C161.531 116.219 161.859 116.266 162.234 116.266ZM373.594 11.3594C373.125 11.0781 372.609 10.9375 372.047 10.9375C371.484 10.8438 370.969 10.5625 370.5 10.0938C370.5 9.4375 370.547 8.92187 370.641 8.54688C371.109 8.35937 371.531 8.3125 371.906 8.40625C372.375 8.5 372.891 8.59375 373.453 8.6875C373.922 8.78125 374.344 8.82812 374.719 8.82812C375.188 8.82812 375.609 8.92187 375.984 9.10938C376.453 9.29688 376.781 9.67188 376.969 10.2344C377.25 10.7969 377.625 11.1719 378.094 11.3594C378.281 12.4844 378.328 13.5625 378.234 14.5938C378.141 15.625 378.047 16.7031 377.953 17.8281C377.578 18.0156 377.391 18.25 377.391 18.5312C377.391 18.7188 377.297 18.9531 377.109 19.2344C376.547 19.0469 376.172 18.7188 375.984 18.25C375.891 17.7812 375.844 17.2656 375.844 16.7031C375.844 16.1406 375.75 15.6719 375.562 15.2969C375.469 14.9219 375.328 14.5 375.141 14.0312C374.766 12.8125 374.25 11.9219 373.594 11.3594ZM370.219 96.4375C371.438 96.5312 372.562 96.8125 373.594 97.2812C374.625 97.75 375.375 98.4531 375.844 99.3906C375.656 100.609 375.656 101.781 375.844 102.906C376.031 103.938 376.031 105.062 375.844 106.281C375.75 106.844 375.656 107.406 375.562 107.969C375.469 108.531 375.516 109.234 375.703 110.078C375.797 110.922 375.844 111.672 375.844 112.328C375.938 112.891 375.797 113.547 375.422 114.297C375.047 115.141 374.391 115.797 373.453 116.266C372.703 116.453 372 116.5 371.344 116.406C370.688 116.406 369.984 116.453 369.234 116.547C368.766 116.641 368.297 116.734 367.828 116.828C367.359 117.016 366.844 117.109 366.281 117.109C365.438 117.203 364.547 117.156 363.609 116.969C362.766 116.875 361.969 116.781 361.219 116.688C360.188 116.688 359.203 116.688 358.266 116.688C357.328 116.781 356.391 116.828 355.453 116.828C353.766 116.453 352.453 116.312 351.516 116.406C350.672 116.5 349.734 116.547 348.703 116.547C347.484 116.453 346.312 116.359 345.188 116.266C344.156 116.172 343.078 116.078 341.953 115.984C341.203 115.891 340.453 115.844 339.703 115.844C338.953 115.938 338.203 115.938 337.453 115.844C337.172 115.844 336.891 115.797 336.609 115.703C336.422 115.609 336.188 115.562 335.906 115.562C335.531 115.469 335.109 115.375 334.641 115.281C334.266 115.281 333.844 115.234 333.375 115.141C332.906 115.047 332.438 114.953 331.969 114.859C331.594 114.766 331.172 114.719 330.703 114.719C328.828 114.812 327.094 115.234 325.5 115.984C324 116.828 322.547 117.719 321.141 118.656C320.109 118.75 318.984 118.891 317.766 119.078C316.641 119.266 315.469 119.312 314.25 119.219C313.781 119.219 313.312 119.125 312.844 118.938C312.469 118.844 312.047 118.797 311.578 118.797C310.547 118.609 309.469 118.469 308.344 118.375C307.312 118.375 306.516 117.953 305.953 117.109C305.578 116.078 305.484 114.906 305.672 113.594C305.859 112.281 305.859 110.969 305.672 109.656C305.578 109 305.391 108.391 305.109 107.828C304.922 107.266 304.875 106.562 304.969 105.719C305.062 104.969 305.344 104.125 305.812 103.188C306.281 102.25 306.844 101.594 307.5 101.219C308.062 100.75 308.672 100.422 309.328 100.234C310.078 99.9531 310.688 99.4375 311.156 98.6875C312 98.3125 312.891 98.125 313.828 98.125C314.766 98.125 315.75 97.9844 316.781 97.7031C316.594 96.2969 316.5 94.75 316.5 93.0625C316.594 91.2812 316.547 89.6406 316.359 88.1406C316.078 85.5156 315.891 83.2656 315.797 81.3906C315.703 79.5156 315.75 77.6875 315.938 75.9062C316.125 75.5312 316.406 75.25 316.781 75.0625C317.156 74.875 317.438 74.5469 317.625 74.0781C317.719 73.2344 317.812 72.7656 317.906 72.6719C318 72.5781 318.094 72.4375 318.188 72.25C318.281 71.7812 318.328 71.2188 318.328 70.5625C318.328 69.9062 318.375 69.25 318.469 68.5938C318.562 68.125 318.609 67.4688 318.609 66.625C318.703 65.7812 318.703 65.0312 318.609 64.375C318.516 63.9062 318.375 63.5312 318.188 63.25C318.094 62.9688 318.141 62.6875 318.328 62.4062C317.953 61.375 317.531 60.4375 317.062 59.5938C316.594 58.75 316.172 57.7656 315.797 56.6406C315.141 54.3906 314.719 51.9062 314.531 49.1875C314.344 48.0625 314.25 46.8906 314.25 45.6719C314.25 44.4531 314.156 43.3281 313.969 42.2969C313.594 41.3594 313.406 40.7969 313.406 40.6094C313.5 40.3281 313.547 40.0469 313.547 39.7656C313.453 39.2969 313.312 38.875 313.125 38.5C312.938 38.125 312.844 37.7031 312.844 37.2344C312.844 36.8594 312.891 36.5312 312.984 36.25C313.078 35.875 313.031 35.4531 312.844 34.9844C311.812 34.8906 310.781 34.9844 309.75 35.2656C308.719 35.5469 307.688 35.7344 306.656 35.8281C306.188 35.8281 305.719 35.8281 305.25 35.8281C304.781 35.7344 304.312 35.6875 303.844 35.6875C301.875 35.9688 300.703 35.7812 300.328 35.125C299.953 34.4688 299.391 33.9062 298.641 33.4375C298.359 32.4062 298.219 31.4219 298.219 30.4844C298.312 29.5469 298.312 28.5625 298.219 27.5312C298.125 27.0625 297.984 26.5938 297.797 26.125C297.703 25.6562 297.656 25.1875 297.656 24.7188C297.562 24.0625 297.516 23.4531 297.516 22.8906C297.609 22.3281 297.562 21.7656 297.375 21.2031C297.562 20.4531 297.703 19.7031 297.797 18.9531C297.984 18.1094 298.359 17.4531 298.922 16.9844C299.109 16.7969 299.391 16.5625 299.766 16.2812C300.234 15.9063 300.562 15.7188 300.75 15.7188C302.062 15.8125 302.953 15.7656 303.422 15.5781C303.984 15.3906 304.5 15.2969 304.969 15.2969C306.375 15.3906 307.312 15.4375 307.781 15.4375C308.25 15.3438 308.719 15.2969 309.188 15.2969C310.312 15.3906 311.484 15.4375 312.703 15.4375C313.922 15.3438 315.188 15.2031 316.5 15.0156C317.25 14.9219 318.094 14.875 319.031 14.875C319.969 14.875 320.906 14.875 321.844 14.875C322.781 14.875 323.672 14.8281 324.516 14.7344C325.359 14.5469 326.062 14.5469 326.625 14.7344C327.656 15.2969 328.312 15.5781 328.594 15.5781C328.875 15.4844 329.109 15.5312 329.297 15.7188C331.359 16.375 332.812 16.5156 333.656 16.1406C334.5 15.7656 335.297 15.2031 336.047 14.4531C336.609 14.3594 337.219 14.3125 337.875 14.3125C338.531 14.3125 339.281 14.3125 340.125 14.3125C341.25 14.4062 341.953 14.4531 342.234 14.4531C342.609 14.3594 343.031 14.3125 343.5 14.3125C345.094 14.2188 346.641 14.125 348.141 14.0312C349.641 13.8437 351.188 13.7031 352.781 13.6094C354.562 13.4219 356.016 13.75 357.141 14.5938C357.891 14.5 358.688 14.6875 359.531 15.1562C360.469 15.5312 361.406 15.7188 362.344 15.7188C363.094 15.625 363.75 15.3906 364.312 15.0156C364.969 14.5469 365.578 14.0781 366.141 13.6094C366.891 13.7031 367.688 13.75 368.531 13.75C369.375 13.6563 370.172 13.7031 370.922 13.8906C371.766 14.1719 372.375 14.6875 372.75 15.4375C373.219 16.0937 373.5 16.9375 373.594 17.9688C373.781 18.9062 373.828 19.9375 373.734 21.0625C373.734 22.0938 373.688 23.0781 373.594 24.0156C373.5 25.2344 373.5 26.5469 373.594 27.9531C373.688 29.3594 373.266 30.4375 372.328 31.1875C371.391 31.9375 370.125 32.4531 368.531 32.7344C367.031 32.9219 365.625 33.0625 364.312 33.1562C363.938 33.1562 363.562 33.1562 363.188 33.1562C362.906 33.1562 362.625 33.25 362.344 33.4375C362.156 35.125 362.156 36.7188 362.344 38.2188C362.625 39.7188 362.859 41.2188 363.047 42.7188C363.141 43.5625 363.141 44.4062 363.047 45.25C362.953 46.0938 363 47.0312 363.188 48.0625C362.906 48.4375 362.531 48.7188 362.062 48.9062C361.688 49 361.359 49.2344 361.078 49.6094C360.984 50.1719 360.844 50.7344 360.656 51.2969C360.562 51.8594 360.609 52.4688 360.797 53.125C360.984 53.6875 361.266 54.25 361.641 54.8125C362.016 55.375 362.297 56.0781 362.484 56.9219C362.578 57.3906 362.578 57.9531 362.484 58.6094C362.391 59.1719 362.297 59.7344 362.203 60.2969C362.109 61.5156 362.109 62.8281 362.203 64.2344C362.297 65.5469 362.344 66.7656 362.344 67.8906C362.344 68.6406 362.391 69.3906 362.484 70.1406C362.672 70.8906 362.719 71.5938 362.625 72.25C362.531 72.625 362.344 72.9062 362.062 73.0938C361.875 73.2812 361.688 73.5625 361.5 73.9375C361.031 74.6875 360.75 75.625 360.656 76.75C360.656 77.7812 360.75 78.8125 360.938 79.8438C361.031 80.3125 361.125 80.7812 361.219 81.25C361.312 81.7188 361.5 82.1875 361.781 82.6562C361.969 82.9375 362.156 83.1719 362.344 83.3594C362.625 83.5469 362.859 83.7812 363.047 84.0625C363.328 85 363.516 85.5625 363.609 85.75C363.797 85.9375 363.891 86.125 363.891 86.3125C363.609 88.8438 363.516 90.8594 363.609 92.3594C363.703 93.8594 363.844 95.3125 364.031 96.7188C364.969 97.1875 365.953 97.2344 366.984 96.8594C368.109 96.4844 369.188 96.3438 370.219 96.4375ZM306.516 27.5312C306.984 26.7812 307.031 25.9844 306.656 25.1406C306.281 24.2969 306 23.5 305.812 22.75C305.625 21.8125 305.344 21.0156 304.969 20.3594C304.688 19.7031 304.406 19.1406 304.125 18.6719C302.625 18.6719 301.828 19.1875 301.734 20.2188C301.641 21.25 301.547 22.5625 301.453 24.1562C301.453 24.7188 301.453 25.2812 301.453 25.8438C301.547 26.3125 301.594 26.7344 301.594 27.1094C301.688 27.8594 301.969 28.4688 302.438 28.9375C302.906 29.4062 303.469 29.5469 304.125 29.3594C304.594 29.2656 304.969 29.0312 305.25 28.6562C305.625 28.1875 306.047 27.8125 306.516 27.5312ZM313.688 30.0625C314.344 29.4062 314.438 28.7969 313.969 28.2344C313.594 27.5781 312.984 27.2969 312.141 27.3906C311.766 27.3906 311.391 27.4844 311.016 27.6719C310.641 27.7656 310.406 27.9531 310.312 28.2344C310.031 28.6094 309.984 28.9844 310.172 29.3594C310.359 29.6406 310.641 29.875 311.016 30.0625C311.484 30.25 311.953 30.3906 312.422 30.4844C312.891 30.4844 313.312 30.3438 313.688 30.0625ZM318.609 107.828C318.891 107.359 318.938 106.797 318.75 106.141C318.656 105.484 318.656 104.828 318.75 104.172C317.344 103.797 316.172 103.656 315.234 103.75C314.391 103.844 313.828 104.031 313.547 104.312C313.078 104.5 312.797 105.016 312.703 105.859C312.609 106.703 312.656 107.359 312.844 107.828C313.125 108.297 313.5 108.672 313.969 108.953C314.531 109.141 315.094 109.234 315.656 109.234C316.312 109.234 316.922 109.141 317.484 108.953C318.047 108.672 318.422 108.297 318.609 107.828ZM350.953 79.4219C350.859 79.8906 351.094 80.5 351.656 81.25C352.219 82 352.734 82.4219 353.203 82.5156C353.859 82.6094 354.422 82.4688 354.891 82.0938C355.453 81.7188 355.969 81.4375 356.438 81.25C356.531 79.75 356.062 78.9531 355.031 78.8594C354 78.7656 353.016 78.625 352.078 78.4375L350.953 79.4219ZM357.281 99.25C357.375 99.0625 357.375 98.875 357.281 98.6875C357.281 98.4062 357.281 98.0312 357.281 97.5625C357.281 96.8125 357.234 95.8281 357.141 94.6094C357.141 93.2969 357.047 92.2188 356.859 91.375C356.766 90.8125 356.625 90.2031 356.438 89.5469C356.344 88.8906 356.156 88.375 355.875 88C355.594 87.5312 355.266 87.25 354.891 87.1562C354.516 87.0625 354.094 87.2969 353.625 87.8594C353.438 88.8906 353.484 89.875 353.766 90.8125C354.141 91.6562 354.281 92.5469 354.188 93.4844C354.188 93.9531 354.141 94.3281 354.047 94.6094C353.953 94.8906 353.859 95.2188 353.766 95.5938C353.672 96.25 353.578 96.9062 353.484 97.5625C353.484 98.125 353.531 98.7812 353.625 99.5312C354 99.8125 354.281 100.141 354.469 100.516C354.75 100.797 355.125 100.938 355.594 100.938C355.969 100.938 356.297 100.797 356.578 100.516C356.953 100.141 357.188 99.7188 357.281 99.25ZM356.859 30.0625C357.234 29.3125 357.656 28.8438 358.125 28.6562C358.594 28.375 359.203 28.0469 359.953 27.6719C360.328 27.4844 360.75 27.2969 361.219 27.1094C361.781 26.8281 362.062 26.4062 362.062 25.8438C361.969 25.4688 361.688 25.1875 361.219 25C360.75 24.8125 360.375 24.5781 360.094 24.2969C359.344 24.3906 358.547 24.4375 357.703 24.4375C356.859 24.3438 356.203 24.5312 355.734 25C355.359 25.1875 355.078 25.4219 354.891 25.7031C354.703 25.9844 354.516 26.2187 354.328 26.4062C354.141 26.6875 354.047 27.1563 354.047 27.8125C354.047 28.375 354.094 28.9375 354.188 29.5C354.375 30.0625 354.609 30.5781 354.891 31.0469C355.266 31.4219 355.734 31.5156 356.297 31.3281L356.859 30.0625ZM376.547 25.4219C376.922 25.6094 377.344 25.75 377.812 25.8438C378.281 25.9375 378.562 26.2187 378.656 26.6875C378.656 27.1563 378.375 27.625 377.812 28.0938C377.344 28.4688 377.062 28.8438 376.969 29.2188C376.781 29.875 376.734 30.4844 376.828 31.0469C376.922 31.5156 376.969 32.2188 376.969 33.1562C376.781 34 376.641 34.5625 376.547 34.8438C376.453 35.125 376.172 35.5 375.703 35.9688C375.422 36.25 375.141 36.5312 374.859 36.8125C374.578 37.0938 374.203 37.3281 373.734 37.5156C372.047 37.7969 371.016 38.1719 370.641 38.6406C370.266 39.0156 369.797 39.2969 369.234 39.4844C368.766 40.6094 368.531 41.9219 368.531 43.4219C368.625 44.8281 368.625 46.2344 368.531 47.6406C368.062 48.2031 367.688 48.2969 367.406 47.9219C367.125 47.5469 366.891 47.0312 366.703 46.375C366.609 45.7188 366.562 45.0625 366.562 44.4062C366.562 43.6562 366.609 43.1875 366.703 43C366.516 42.1562 366.422 41.125 366.422 39.9062C366.516 38.5938 366.656 37.5625 366.844 36.8125C367.781 36.5312 368.484 36.2031 368.953 35.8281C369.422 36.0156 369.797 35.9688 370.078 35.6875C370.453 35.4062 370.828 35.1719 371.203 34.9844C371.391 34.8906 371.625 34.8906 371.906 34.9844C372.188 34.9844 372.469 34.9375 372.75 34.8438C373.406 34.6562 373.828 34.3281 374.016 33.8594C374.391 33.3906 374.578 32.9688 374.578 32.5938C374.578 32.125 374.672 31.6562 374.859 31.1875C375.047 30.7188 375.234 30.25 375.422 29.7812C375.609 29.3125 375.562 28.8438 375.281 28.375C375.469 27.9062 375.609 27.3437 375.703 26.6875C375.797 26.0313 376.078 25.6094 376.547 25.4219ZM304.828 97.8438C304.641 97.2812 304.594 96.7188 304.688 96.1562C304.781 95.5938 304.875 95.0781 304.969 94.6094C304.5 93.8594 304.453 93.3438 304.828 93.0625C305.297 92.6875 305.859 92.5 306.516 92.5C306.797 92.5 307.125 92.5938 307.5 92.7812C307.875 92.875 308.203 92.875 308.484 92.7812C308.766 92.6875 309.047 92.4531 309.328 92.0781C309.703 91.6094 309.984 91.1406 310.172 90.6719C310.172 89.6406 310.219 89.0312 310.312 88.8438C310.406 88.5625 310.453 88.3281 310.453 88.1406C310.453 87.3906 310.406 86.6875 310.312 86.0312C310.312 85.2812 310.312 84.625 310.312 84.0625C310.312 83.125 310.219 82.2344 310.031 81.3906C309.844 80.5469 309.75 79.6094 309.75 78.5781C310.031 77.6406 310.734 77.1719 311.859 77.1719C312.328 77.8281 312.422 78.5312 312.141 79.2812C311.859 79.9375 311.719 80.6406 311.719 81.3906C311.625 82.6094 311.719 83.875 312 85.1875C312.375 86.4062 312.469 87.6719 312.281 88.9844C312.375 90.1094 312.469 91.3281 312.562 92.6406C312.656 93.9531 312.328 94.8906 311.578 95.4531C311.016 95.9219 310.359 96.2031 309.609 96.2969C308.953 96.2969 308.25 96.3906 307.5 96.5781C307.125 96.9531 306.75 97.4219 306.375 97.9844C306 98.5469 305.484 98.5 304.828 97.8438ZM354.609 119.781C354.891 119.969 355.172 120.062 355.453 120.062C355.828 120.062 355.969 120.297 355.875 120.766C355.875 121.234 355.406 121.516 354.469 121.609C353.625 121.703 352.828 121.75 352.078 121.75C351.328 121.656 350.578 121.562 349.828 121.469C349.172 121.469 348.562 121.375 348 121.188C347.344 121.469 346.5 121.609 345.469 121.609C344.438 121.609 343.547 121.703 342.797 121.891C342.141 121.984 341.719 122.031 341.531 122.031C341.344 122.031 341.109 121.938 340.828 121.75C338.391 122.312 335.859 122.547 333.234 122.453C330.703 122.453 328.312 122.734 326.062 123.297C325.219 121.984 325.078 121.047 325.641 120.484C326.297 119.922 327.047 119.406 327.891 118.938C328.828 118.469 329.719 118.281 330.562 118.375C331.5 118.562 332.484 118.75 333.516 118.938C334.078 119.031 334.641 119.031 335.203 118.938C335.766 118.844 336.281 118.844 336.75 118.938C338.156 119.312 339.375 119.406 340.406 119.219C341.438 119.031 342.188 119.125 342.656 119.5C343.312 119.219 343.969 119.125 344.625 119.219C345.281 119.406 345.984 119.5 346.734 119.5C347.484 119.5 348.281 119.406 349.125 119.219C349.969 119.125 350.859 119.078 351.797 119.078C352.453 119.359 352.922 119.453 353.203 119.359C353.484 119.266 353.719 119.266 353.906 119.359L354.609 119.781ZM361.219 119.359C361.875 119.078 362.812 118.938 364.031 118.938C365.25 119.031 365.766 119.453 365.578 120.203C365.484 120.578 365.156 120.859 364.594 121.047C364.031 121.234 363.422 121.281 362.766 121.188C362.203 121.188 361.734 121.047 361.359 120.766C360.984 120.484 360.938 120.016 361.219 119.359ZM502.406 106.844C502.875 107.875 503.156 109 503.25 110.219C503.438 111.344 503.438 112.562 503.25 113.875C503.156 114.25 503.016 114.625 502.828 115C502.641 115.281 502.453 115.656 502.266 116.125C502.078 116.688 501.938 117.391 501.844 118.234C501.844 119.078 501.562 119.641 501 119.922C500.719 120.109 500.344 120.156 499.875 120.062C499.406 119.969 499.078 120.156 498.891 120.625C498.328 120.812 497.859 120.766 497.484 120.484C497.203 120.203 496.828 120.062 496.359 120.062C495.234 120.156 494.531 120.156 494.25 120.062C493.969 119.969 493.734 119.922 493.547 119.922C492.797 119.828 492 119.734 491.156 119.641C490.406 119.641 489.609 119.641 488.766 119.641C488.297 119.547 487.828 119.547 487.359 119.641C486.891 119.734 486.422 119.688 485.953 119.5C485.859 119.406 485.578 119.266 485.109 119.078C484.734 118.984 484.453 118.844 484.266 118.656C483.141 117.625 482.109 117.016 481.172 116.828C480.328 116.734 479.625 116.734 479.062 116.828C478.312 116.828 477.469 117.016 476.531 117.391C475.781 117.578 475.078 117.859 474.422 118.234C473.859 118.609 473.203 118.844 472.453 118.938C471.984 119.031 471.422 119.031 470.766 118.938C470.109 118.844 469.547 118.75 469.078 118.656C468.703 118.656 468.328 118.609 467.953 118.516C467.578 118.516 467.156 118.516 466.688 118.516C466.219 118.516 465.75 118.516 465.281 118.516C464.906 118.609 464.531 118.609 464.156 118.516C463.312 118.422 462.562 118.188 461.906 117.812C461.344 117.531 460.688 117.297 459.938 117.109C458.438 116.734 456.891 116.594 455.297 116.688C453.703 116.875 452.25 117.203 450.938 117.672C450.188 118.234 449.625 118.516 449.25 118.516C448.312 118.234 447.703 118.094 447.422 118.094C447.234 118.188 447.047 118.234 446.859 118.234C446.297 118.141 445.734 118 445.172 117.812C444.703 117.625 444.234 117.438 443.766 117.25C443.484 117.25 443.156 117.203 442.781 117.109C442.5 117.109 442.219 117.109 441.938 117.109C441.656 117.109 441.375 117.109 441.094 117.109C440.906 117.203 440.672 117.203 440.391 117.109C439.547 116.828 438.891 116.734 438.422 116.828C438.047 116.922 437.672 116.875 437.297 116.688C436.828 116.688 436.406 116.594 436.031 116.406C435.75 116.312 435.469 116.172 435.188 115.984C434.438 115.703 433.594 115.422 432.656 115.141C431.812 114.953 430.922 114.766 429.984 114.578C429.328 114.766 428.766 115.047 428.297 115.422C427.828 115.797 427.312 116.031 426.75 116.125C426.281 116.219 425.812 116.219 425.344 116.125C424.969 116.031 424.5 115.938 423.938 115.844C420.938 115.656 417.891 115.516 414.797 115.422C411.703 115.422 408.797 115.141 406.078 114.578C405.609 114.203 405.234 113.828 404.953 113.453C404.672 112.984 404.438 112.375 404.25 111.625C403.406 110.969 402.609 110.266 401.859 109.516C401.109 108.766 400.359 108.016 399.609 107.266C399.234 105.109 399.188 102.906 399.469 100.656C399.844 98.3125 399.797 96.2031 399.328 94.3281C399.516 93.7656 399.562 93.25 399.469 92.7812C399.469 92.3125 399.562 91.8438 399.75 91.375C400.406 90.3438 400.734 89.7344 400.734 89.5469C400.734 89.3594 400.781 89.1719 400.875 88.9844C401.062 88.7031 401.25 88.4688 401.438 88.2812C401.625 88.0938 401.766 87.8594 401.859 87.5781C402.047 87.2031 402.094 86.8281 402 86.4531C401.906 85.9844 401.812 85.6094 401.719 85.3281C401.531 84.6719 401.203 84.1094 400.734 83.6406C400.266 83.1719 399.844 82.7031 399.469 82.2344C399.469 79.9844 399.469 77.8281 399.469 75.7656C399.469 73.7031 399.562 71.5 399.75 69.1562C399.75 68.5938 399.797 68.0312 399.891 67.4688C399.984 66.9062 399.984 66.3906 399.891 65.9219C399.891 65.6406 399.844 65.4062 399.75 65.2188C399.75 64.9375 399.703 64.6562 399.609 64.375C399.609 63.7188 399.656 63.1094 399.75 62.5469C399.938 61.8906 400.031 61.3281 400.031 60.8594C399.75 59.7344 399.703 58.75 399.891 57.9062C399.984 57.0625 400.031 56.2656 400.031 55.5156C400.031 54.6719 400.031 53.8281 400.031 52.9844C400.031 52.7031 400.078 52.375 400.172 52C400.266 51.625 400.312 51.2969 400.312 51.0156C400.312 50.6406 400.266 50.3125 400.172 50.0312C400.078 49.75 400.125 49.4688 400.312 49.1875C400.781 49 401.062 48.6719 401.156 48.2031C401.344 47.7344 401.578 47.2656 401.859 46.7969C402.047 46.3281 402.375 45.9062 402.844 45.5312C403.312 45.1562 403.641 44.7344 403.828 44.2656C404.484 42.9531 404.625 41.5938 404.25 40.1875C403.969 38.6875 403.453 37.4688 402.703 36.5312C402.516 36.25 402.234 36.0156 401.859 35.8281C401.578 35.5469 401.344 35.1719 401.156 34.7031C400.969 33.8594 400.922 33.0156 401.016 32.1719C401.109 31.2344 401.156 30.3438 401.156 29.5C400.969 28.4688 400.969 27.4844 401.156 26.5469C401.344 25.5156 401.438 24.625 401.438 23.875C401.438 22.5625 401.484 21.7656 401.578 21.4844C401.672 21.1094 401.719 20.7344 401.719 20.3594C401.906 19.6094 402 18.8594 402 18.1094C402 17.3594 402.234 16.6094 402.703 15.8594C403.172 15.1094 403.969 14.7344 405.094 14.7344C405.656 14.2656 406.359 13.9375 407.203 13.75C408.047 13.5625 408.844 13.3281 409.594 13.0469C410.344 13.1406 411.188 13.1406 412.125 13.0469C413.062 12.8594 413.812 12.9531 414.375 13.3281C415.031 12.9531 415.734 12.8594 416.484 13.0469C417.328 13.2344 418.125 13.2812 418.875 13.1875C419.812 13.1875 420.609 13.1875 421.266 13.1875C422.016 13.0938 422.906 13.1406 423.938 13.3281C424.688 13.4219 425.344 13.5156 425.906 13.6094C426.562 13.7031 427.219 13.75 427.875 13.75C428.906 13.75 429.984 13.7031 431.109 13.6094C432.328 13.5156 433.359 13.5156 434.203 13.6094C435.891 13.7969 437.484 13.8906 438.984 13.8906C440.578 13.8906 442.031 14.2656 443.344 15.0156C443.625 15.4844 443.766 15.9063 443.766 16.2812C443.859 16.6562 444.047 17.0781 444.328 17.5469C444.797 18.2969 445.547 18.8594 446.578 19.2344C447.703 19.6094 448.734 20.125 449.672 20.7812C449.859 20.9688 450.234 21.4375 450.797 22.1875C451.453 23.2188 451.734 23.8281 451.641 24.0156C451.547 24.1094 451.453 24.25 451.359 24.4375C451.266 24.9063 451.219 25.4688 451.219 26.125C451.312 26.6875 451.359 27.2031 451.359 27.6719C451.359 30.0156 451.266 32.4062 451.078 34.8438C450.984 37.2812 450.984 39.7188 451.078 42.1562C451.078 43.75 451.078 45.3906 451.078 47.0781C451.172 48.6719 451.172 50.2656 451.078 51.8594C451.078 52.5156 451.031 53.1719 450.938 53.8281C450.844 54.3906 450.938 54.9062 451.219 55.375C450.844 56.4062 450.656 57.5312 450.656 58.75C450.75 59.875 450.75 61 450.656 62.125C450.469 64 450.281 65.9219 450.094 67.8906C450 69.7656 449.906 71.6875 449.812 73.6562C449.719 74.5938 449.625 75.5312 449.531 76.4688C449.531 77.3125 449.484 78.1562 449.391 79C449.109 80.5938 448.969 82.2344 448.969 83.9219C449.062 85.5156 449.109 87.2031 449.109 88.9844C448.359 90.7656 448.266 92.6406 448.828 94.6094C450.984 94.6094 453.328 94.7969 455.859 95.1719C458.391 95.5469 460.781 95.9688 463.031 96.4375C463.969 96.25 464.859 96.2969 465.703 96.5781C466.547 96.7656 467.438 96.8594 468.375 96.8594C469.125 96.7656 469.828 96.7188 470.484 96.7188C471.141 96.625 471.844 96.6719 472.594 96.8594C473.156 97.1406 473.672 97.4688 474.141 97.8438C474.609 98.125 475.172 98.3594 475.828 98.5469C476.953 98.7344 477.844 99.0625 478.5 99.5312C479.25 99.9062 480 100 480.75 99.8125C481.5 99.625 482.156 99.2031 482.719 98.5469C483.281 97.7969 483.984 97.3281 484.828 97.1406C486.047 97.1406 487.219 97.1406 488.344 97.1406C489.562 97.0469 490.828 97.0938 492.141 97.2812C492.609 97.375 493.078 97.4688 493.547 97.5625C494.016 97.6562 494.438 97.7031 494.812 97.7031C495.562 97.7031 496.406 97.75 497.344 97.8438C498.375 97.9375 499.172 98.1719 499.734 98.5469C500.203 98.8281 500.578 99.2031 500.859 99.6719C501.234 100.141 501.609 100.609 501.984 101.078C502.172 101.734 502.125 102.484 501.844 103.328C501.656 104.078 501.656 104.828 501.844 105.578L502.406 106.844ZM408.891 108.25C409.172 107.688 409.219 107.172 409.031 106.703C408.75 106.234 408.562 105.719 408.469 105.156C408.375 104.594 408.234 104.031 408.047 103.469C407.766 103 407.672 102.672 407.766 102.484C407.859 102.203 407.906 101.969 407.906 101.781C407.906 101.5 407.812 101.266 407.625 101.078C407.438 100.797 407.25 100.562 407.062 100.375C406.594 100.844 406.125 101.312 405.656 101.781C405.281 102.25 405.094 102.859 405.094 103.609C405.188 104.547 405.562 105.344 406.219 106C406.969 106.656 407.531 107.266 407.906 107.828L408.891 108.25ZM416.203 21.625C416.297 21.0625 416.344 20.5469 416.344 20.0781C416.438 19.5156 416.344 19.0469 416.062 18.6719C414.844 18.2969 413.578 18.1563 412.266 18.25C411.047 18.3437 409.875 18.4844 408.75 18.6719C407.719 19.1406 407.109 19.9844 406.922 21.2031C406.828 22.3281 406.781 23.4062 406.781 24.4375C407.25 25.0937 407.438 25.5156 407.344 25.7031C407.25 25.8906 407.156 26.0781 407.062 26.2656C407.344 26.5469 407.578 26.875 407.766 27.25C407.953 27.625 408.281 27.9062 408.75 28.0938C409.031 28.0938 409.359 27.8594 409.734 27.3906C410.203 26.8281 410.531 26.2656 410.719 25.7031C410.906 25.2344 411 24.7188 411 24.1562C411 23.5938 411.234 23.1719 411.703 22.8906C411.984 22.7031 412.219 22.6563 412.406 22.75C412.688 22.8437 412.969 22.8437 413.25 22.75C414.281 22.5625 415.266 22.1875 416.203 21.625ZM425.625 21.3438C425.812 20.9688 425.859 20.6406 425.766 20.3594C425.672 19.9844 425.578 19.6094 425.484 19.2344C424.266 18.6719 423.516 18.4844 423.234 18.6719C423.047 18.8594 422.812 19.0469 422.531 19.2344C422.062 19.5156 421.641 19.8438 421.266 20.2188C420.984 20.5937 420.844 21.0156 420.844 21.4844C421.5 21.9531 422.297 22.0938 423.234 21.9062C424.266 21.7187 425.062 21.5313 425.625 21.3438ZM473.578 104.453C473.578 104.922 473.766 105.297 474.141 105.578C474.516 105.766 474.891 105.859 475.266 105.859C475.734 105.859 476.156 105.766 476.531 105.578C476.906 105.297 477.047 104.828 476.953 104.172C476.297 103.703 475.922 103.469 475.828 103.469C475.734 103.375 475.734 103.234 475.828 103.047C475.359 103.234 474.844 103.422 474.281 103.609C473.812 103.703 473.578 103.984 473.578 104.453ZM493.406 107.406C494.531 107.219 495.234 106.703 495.516 105.859C495.797 104.922 495.609 104.078 494.953 103.328C493.922 103.516 492.938 103.562 492 103.469C491.062 103.281 490.219 103.422 489.469 103.891C488.438 103.703 487.219 103.703 485.812 103.891C484.5 103.984 483.656 104.547 483.281 105.578C483.469 105.766 483.703 106.094 483.984 106.562C484.359 106.938 484.828 107.219 485.391 107.406C485.766 107.5 486.188 107.5 486.656 107.406C487.125 107.312 487.641 107.266 488.203 107.266C488.766 107.172 489.328 107.172 489.891 107.266C490.453 107.266 490.969 107.266 491.438 107.266C491.906 107.266 492.281 107.312 492.562 107.406C492.938 107.406 493.219 107.406 493.406 107.406ZM455.297 23.875C455.297 23.5 455.25 22.9375 455.156 22.1875C455.156 21.4375 455.062 20.875 454.875 20.5C454.781 20.2188 454.547 19.8906 454.172 19.5156C453.891 19.1406 453.75 18.8125 453.75 18.5312C453.75 17.9688 454.125 17.7344 454.875 17.8281C455.719 17.8281 456.281 17.9219 456.562 18.1094C457.125 18.5781 457.5 19.4687 457.688 20.7812C457.969 22 458.016 23.0312 457.828 23.875C457.828 24.1562 457.781 24.4375 457.688 24.7188C457.594 24.9063 457.5 25.1406 457.406 25.4219C457.219 25.8906 457.172 26.4531 457.266 27.1094C457.359 27.6719 457.359 28.3281 457.266 29.0781C457.172 29.9219 457.031 30.8125 456.844 31.75C456.75 32.6875 456.656 33.6719 456.562 34.7031C454.969 34.6094 454.219 34 454.312 32.875C454.406 31.75 454.453 30.5312 454.453 29.2188C454.453 28.9375 454.406 28.6562 454.312 28.375C454.312 28.0938 454.312 27.8125 454.312 27.5312C454.406 26.875 454.547 26.2656 454.734 25.7031C455.016 25.0469 455.203 24.4375 455.297 23.875ZM396.516 43.4219C396.609 42.6719 396.703 41.9219 396.797 41.1719C396.891 40.4219 396.938 39.625 396.938 38.7812C396.844 37.8438 396.75 36.9062 396.656 35.9688C396.562 35.0312 396.469 34.0938 396.375 33.1562C396.188 32.2188 396.094 31.3281 396.094 30.4844C396.094 29.5469 395.906 28.6562 395.531 27.8125C395.719 27.4375 395.859 27.0625 395.953 26.6875C396.047 26.2187 396.188 25.7969 396.375 25.4219C396.75 25.3281 397.078 25.1875 397.359 25C397.734 24.7188 398.156 24.7188 398.625 25C398.719 26.7812 398.625 28.6094 398.344 30.4844C398.062 32.3594 398.062 34.2812 398.344 36.25C399.094 36.4375 399.75 37.0938 400.312 38.2188C400.969 39.25 401.109 40.4219 400.734 41.7344C400.547 42.2031 400.312 42.6719 400.031 43.1406C399.844 43.5156 399.75 43.9375 399.75 44.4062C399.469 44.5938 399.234 44.8281 399.047 45.1094C398.953 45.2969 398.719 45.3906 398.344 45.3906C398.156 45.9531 398.062 46.4688 398.062 46.9375C398.062 47.3125 397.828 47.5938 397.359 47.7812C396.609 47.5938 396.234 47.0312 396.234 46.0938C396.328 45.0625 396.422 44.1719 396.516 43.4219ZM454.594 83.3594C454.594 83.7344 454.781 84.3906 455.156 85.3281C455.25 86.1719 455.297 86.9219 455.297 87.5781C455.297 88.1406 455.484 88.7031 455.859 89.2656C456.234 89.7344 456.75 90.1562 457.406 90.5312C458.156 90.9062 458.906 91.0938 459.656 91.0938C460.125 91.0938 460.688 90.9062 461.344 90.5312C462.094 90.0625 462.797 90.0625 463.453 90.5312C464.203 91 464.484 91.8438 464.297 93.0625C463.828 93.7188 463.219 93.9531 462.469 93.7656C461.812 93.5781 461.062 93.4375 460.219 93.3438C459.094 93.1562 457.922 93.1094 456.703 93.2031C455.578 93.2031 454.547 93.0625 453.609 92.7812C453.047 92.5938 452.531 92.2656 452.062 91.7969C451.688 91.2344 451.547 90.625 451.641 89.9688C451.734 89.3125 451.875 88.7031 452.062 88.1406C452.25 87.4844 452.391 86.8281 452.484 86.1719C452.672 85.4219 452.719 84.625 452.625 83.7812C452.531 82.9375 452.531 82.0469 452.625 81.1094C452.625 80.8281 452.672 80.5938 452.766 80.4062C452.953 80.125 453 79.8438 452.906 79.5625C454.031 80.2188 454.594 80.875 454.594 81.5312C454.594 82.1875 454.594 82.7969 454.594 83.3594ZM470.203 93.2031C469.828 93.5781 469.312 93.9062 468.656 94.1875C468.094 94.375 467.438 94.375 466.688 94.1875C466.5 93.9062 466.312 93.6719 466.125 93.4844C466.031 93.2031 466.031 92.8281 466.125 92.3594C466.406 92.1719 466.781 92.0312 467.25 91.9375C467.719 91.75 468.141 91.6562 468.516 91.6562C468.984 91.6562 469.359 91.7969 469.641 92.0781C470.016 92.2656 470.203 92.6406 470.203 93.2031ZM400.031 112.75C399.562 112.844 399.234 112.844 399.047 112.75C398.859 112.562 398.531 112.469 398.062 112.469C396.656 112.844 395.672 112.656 395.109 111.906C394.641 111.531 394.172 110.922 393.703 110.078C393.328 109.141 393.141 108.344 393.141 107.688C393.516 106.469 393.656 105.719 393.562 105.438C393.469 105.156 393.469 104.828 393.562 104.453C393.656 103.703 393.797 103.047 393.984 102.484C394.172 101.922 394.359 101.406 394.547 100.938C394.359 100.188 394.172 99.3906 393.984 98.5469C393.797 97.7031 393.797 96.8594 393.984 96.0156C394.078 95.5469 394.125 94.9375 394.125 94.1875C394.125 93.3438 394.594 93.0156 395.531 93.2031C395.906 93.2969 396.234 93.6719 396.516 94.3281C396.891 94.8906 397.031 95.4531 396.938 96.0156C396.469 97.0469 396.281 97.7969 396.375 98.2656C396.469 98.6406 396.469 99.0625 396.375 99.5312C396.188 100.844 395.953 102.203 395.672 103.609C395.484 105.016 395.625 106.234 396.094 107.266C396.281 107.547 396.516 107.875 396.797 108.25C397.172 108.625 397.5 109 397.781 109.375C398.25 109.844 398.672 110.266 399.047 110.641C399.422 110.922 399.844 111.25 400.312 111.625L400.031 112.75ZM402.844 115.141C403.5 116.359 403.922 117.062 404.109 117.25C404.297 117.438 404.344 117.719 404.25 118.094C404.156 118.469 403.828 118.703 403.266 118.797C402.703 118.984 402.234 119.031 401.859 118.938C400.922 118.75 400.172 118.094 399.609 116.969C399.047 115.938 399.328 115.141 400.453 114.578C400.922 114.578 401.344 114.625 401.719 114.719C402.188 114.812 402.562 114.953 402.844 115.141ZM491.578 122.453C492.328 122.547 492.984 122.594 493.547 122.594C494.109 122.594 494.438 122.828 494.531 123.297C494.531 123.578 494.344 123.859 493.969 124.141C493.594 124.516 493.312 124.75 493.125 124.844C492.656 125.031 492.141 125.078 491.578 124.984C491.109 124.891 490.5 124.844 489.75 124.844C489.375 124.844 488.953 124.844 488.484 124.844C488.016 124.938 487.547 125.031 487.078 125.125C486.328 125.125 485.484 125.031 484.547 124.844C483.703 124.75 482.812 124.656 481.875 124.562C481.594 124.562 481.266 124.562 480.891 124.562C480.609 124.656 480.281 124.656 479.906 124.562C478.875 124.469 477.797 124.281 476.672 124C475.547 123.719 474.469 123.625 473.438 123.719C472.688 123.812 471.984 123.906 471.328 124C470.766 124.188 470.156 124.328 469.5 124.422C468.562 124.422 467.625 124.375 466.688 124.281C465.75 124.281 464.906 124.328 464.156 124.422C463.688 124.422 463.031 124.469 462.188 124.562C461.344 124.656 460.641 124.656 460.078 124.562C459.422 124.375 458.906 123.953 458.531 123.297C458.156 122.641 458.344 122.125 459.094 121.75C460.781 121.562 462 121.469 462.75 121.469C463.594 121.562 464.391 121.609 465.141 121.609C465.891 121.609 466.641 121.562 467.391 121.469C468.234 121.469 468.984 121.516 469.641 121.609C470.016 121.703 470.344 121.75 470.625 121.75C470.906 121.844 471.234 121.938 471.609 122.031H475.406C476.344 122.031 477 121.844 477.375 121.469C477.75 121.094 478.453 120.859 479.484 120.766C480.703 120.578 481.781 120.625 482.719 120.906C484.781 121.938 486.328 122.453 487.359 122.453C488.109 122.453 488.766 122.406 489.328 122.312C489.984 122.312 490.734 122.359 491.578 122.453ZM616.172 106.844C616.641 107.875 616.922 109 617.016 110.219C617.203 111.344 617.203 112.562 617.016 113.875C616.922 114.25 616.781 114.625 616.594 115C616.406 115.281 616.219 115.656 616.031 116.125C615.844 116.688 615.703 117.391 615.609 118.234C615.609 119.078 615.328 119.641 614.766 119.922C614.484 120.109 614.109 120.156 613.641 120.062C613.172 119.969 612.844 120.156 612.656 120.625C612.094 120.812 611.625 120.766 611.25 120.484C610.969 120.203 610.594 120.062 610.125 120.062C609 120.156 608.297 120.156 608.016 120.062C607.734 119.969 607.5 119.922 607.312 119.922C606.562 119.828 605.766 119.734 604.922 119.641C604.172 119.641 603.375 119.641 602.531 119.641C602.062 119.547 601.594 119.547 601.125 119.641C600.656 119.734 600.188 119.688 599.719 119.5C599.625 119.406 599.344 119.266 598.875 119.078C598.5 118.984 598.219 118.844 598.031 118.656C596.906 117.625 595.875 117.016 594.938 116.828C594.094 116.734 593.391 116.734 592.828 116.828C592.078 116.828 591.234 117.016 590.297 117.391C589.547 117.578 588.844 117.859 588.188 118.234C587.625 118.609 586.969 118.844 586.219 118.938C585.75 119.031 585.188 119.031 584.531 118.938C583.875 118.844 583.312 118.75 582.844 118.656C582.469 118.656 582.094 118.609 581.719 118.516C581.344 118.516 580.922 118.516 580.453 118.516C579.984 118.516 579.516 118.516 579.047 118.516C578.672 118.609 578.297 118.609 577.922 118.516C577.078 118.422 576.328 118.188 575.672 117.812C575.109 117.531 574.453 117.297 573.703 117.109C572.203 116.734 570.656 116.594 569.062 116.688C567.469 116.875 566.016 117.203 564.703 117.672C563.953 118.234 563.391 118.516 563.016 118.516C562.078 118.234 561.469 118.094 561.188 118.094C561 118.188 560.812 118.234 560.625 118.234C560.062 118.141 559.5 118 558.938 117.812C558.469 117.625 558 117.438 557.531 117.25C557.25 117.25 556.922 117.203 556.547 117.109C556.266 117.109 555.984 117.109 555.703 117.109C555.422 117.109 555.141 117.109 554.859 117.109C554.672 117.203 554.438 117.203 554.156 117.109C553.312 116.828 552.656 116.734 552.188 116.828C551.812 116.922 551.438 116.875 551.062 116.688C550.594 116.688 550.172 116.594 549.797 116.406C549.516 116.312 549.234 116.172 548.953 115.984C548.203 115.703 547.359 115.422 546.422 115.141C545.578 114.953 544.688 114.766 543.75 114.578C543.094 114.766 542.531 115.047 542.062 115.422C541.594 115.797 541.078 116.031 540.516 116.125C540.047 116.219 539.578 116.219 539.109 116.125C538.734 116.031 538.266 115.938 537.703 115.844C534.703 115.656 531.656 115.516 528.562 115.422C525.469 115.422 522.562 115.141 519.844 114.578C519.375 114.203 519 113.828 518.719 113.453C518.438 112.984 518.203 112.375 518.016 111.625C517.172 110.969 516.375 110.266 515.625 109.516C514.875 108.766 514.125 108.016 513.375 107.266C513 105.109 512.953 102.906 513.234 100.656C513.609 98.3125 513.562 96.2031 513.094 94.3281C513.281 93.7656 513.328 93.25 513.234 92.7812C513.234 92.3125 513.328 91.8438 513.516 91.375C514.172 90.3438 514.5 89.7344 514.5 89.5469C514.5 89.3594 514.547 89.1719 514.641 88.9844C514.828 88.7031 515.016 88.4688 515.203 88.2812C515.391 88.0938 515.531 87.8594 515.625 87.5781C515.812 87.2031 515.859 86.8281 515.766 86.4531C515.672 85.9844 515.578 85.6094 515.484 85.3281C515.297 84.6719 514.969 84.1094 514.5 83.6406C514.031 83.1719 513.609 82.7031 513.234 82.2344C513.234 79.9844 513.234 77.8281 513.234 75.7656C513.234 73.7031 513.328 71.5 513.516 69.1562C513.516 68.5938 513.562 68.0312 513.656 67.4688C513.75 66.9062 513.75 66.3906 513.656 65.9219C513.656 65.6406 513.609 65.4062 513.516 65.2188C513.516 64.9375 513.469 64.6562 513.375 64.375C513.375 63.7188 513.422 63.1094 513.516 62.5469C513.703 61.8906 513.797 61.3281 513.797 60.8594C513.516 59.7344 513.469 58.75 513.656 57.9062C513.75 57.0625 513.797 56.2656 513.797 55.5156C513.797 54.6719 513.797 53.8281 513.797 52.9844C513.797 52.7031 513.844 52.375 513.938 52C514.031 51.625 514.078 51.2969 514.078 51.0156C514.078 50.6406 514.031 50.3125 513.938 50.0312C513.844 49.75 513.891 49.4688 514.078 49.1875C514.547 49 514.828 48.6719 514.922 48.2031C515.109 47.7344 515.344 47.2656 515.625 46.7969C515.812 46.3281 516.141 45.9062 516.609 45.5312C517.078 45.1562 517.406 44.7344 517.594 44.2656C518.25 42.9531 518.391 41.5938 518.016 40.1875C517.734 38.6875 517.219 37.4688 516.469 36.5312C516.281 36.25 516 36.0156 515.625 35.8281C515.344 35.5469 515.109 35.1719 514.922 34.7031C514.734 33.8594 514.688 33.0156 514.781 32.1719C514.875 31.2344 514.922 30.3438 514.922 29.5C514.734 28.4688 514.734 27.4844 514.922 26.5469C515.109 25.5156 515.203 24.625 515.203 23.875C515.203 22.5625 515.25 21.7656 515.344 21.4844C515.438 21.1094 515.484 20.7344 515.484 20.3594C515.672 19.6094 515.766 18.8594 515.766 18.1094C515.766 17.3594 516 16.6094 516.469 15.8594C516.938 15.1094 517.734 14.7344 518.859 14.7344C519.422 14.2656 520.125 13.9375 520.969 13.75C521.812 13.5625 522.609 13.3281 523.359 13.0469C524.109 13.1406 524.953 13.1406 525.891 13.0469C526.828 12.8594 527.578 12.9531 528.141 13.3281C528.797 12.9531 529.5 12.8594 530.25 13.0469C531.094 13.2344 531.891 13.2812 532.641 13.1875C533.578 13.1875 534.375 13.1875 535.031 13.1875C535.781 13.0938 536.672 13.1406 537.703 13.3281C538.453 13.4219 539.109 13.5156 539.672 13.6094C540.328 13.7031 540.984 13.75 541.641 13.75C542.672 13.75 543.75 13.7031 544.875 13.6094C546.094 13.5156 547.125 13.5156 547.969 13.6094C549.656 13.7969 551.25 13.8906 552.75 13.8906C554.344 13.8906 555.797 14.2656 557.109 15.0156C557.391 15.4844 557.531 15.9063 557.531 16.2812C557.625 16.6562 557.812 17.0781 558.094 17.5469C558.562 18.2969 559.312 18.8594 560.344 19.2344C561.469 19.6094 562.5 20.125 563.438 20.7812C563.625 20.9688 564 21.4375 564.562 22.1875C565.219 23.2188 565.5 23.8281 565.406 24.0156C565.312 24.1094 565.219 24.25 565.125 24.4375C565.031 24.9063 564.984 25.4688 564.984 26.125C565.078 26.6875 565.125 27.2031 565.125 27.6719C565.125 30.0156 565.031 32.4062 564.844 34.8438C564.75 37.2812 564.75 39.7188 564.844 42.1562C564.844 43.75 564.844 45.3906 564.844 47.0781C564.938 48.6719 564.938 50.2656 564.844 51.8594C564.844 52.5156 564.797 53.1719 564.703 53.8281C564.609 54.3906 564.703 54.9062 564.984 55.375C564.609 56.4062 564.422 57.5312 564.422 58.75C564.516 59.875 564.516 61 564.422 62.125C564.234 64 564.047 65.9219 563.859 67.8906C563.766 69.7656 563.672 71.6875 563.578 73.6562C563.484 74.5938 563.391 75.5312 563.297 76.4688C563.297 77.3125 563.25 78.1562 563.156 79C562.875 80.5938 562.734 82.2344 562.734 83.9219C562.828 85.5156 562.875 87.2031 562.875 88.9844C562.125 90.7656 562.031 92.6406 562.594 94.6094C564.75 94.6094 567.094 94.7969 569.625 95.1719C572.156 95.5469 574.547 95.9688 576.797 96.4375C577.734 96.25 578.625 96.2969 579.469 96.5781C580.312 96.7656 581.203 96.8594 582.141 96.8594C582.891 96.7656 583.594 96.7188 584.25 96.7188C584.906 96.625 585.609 96.6719 586.359 96.8594C586.922 97.1406 587.438 97.4688 587.906 97.8438C588.375 98.125 588.938 98.3594 589.594 98.5469C590.719 98.7344 591.609 99.0625 592.266 99.5312C593.016 99.9062 593.766 100 594.516 99.8125C595.266 99.625 595.922 99.2031 596.484 98.5469C597.047 97.7969 597.75 97.3281 598.594 97.1406C599.812 97.1406 600.984 97.1406 602.109 97.1406C603.328 97.0469 604.594 97.0938 605.906 97.2812C606.375 97.375 606.844 97.4688 607.312 97.5625C607.781 97.6562 608.203 97.7031 608.578 97.7031C609.328 97.7031 610.172 97.75 611.109 97.8438C612.141 97.9375 612.938 98.1719 613.5 98.5469C613.969 98.8281 614.344 99.2031 614.625 99.6719C615 100.141 615.375 100.609 615.75 101.078C615.938 101.734 615.891 102.484 615.609 103.328C615.422 104.078 615.422 104.828 615.609 105.578L616.172 106.844ZM522.656 108.25C522.938 107.688 522.984 107.172 522.797 106.703C522.516 106.234 522.328 105.719 522.234 105.156C522.141 104.594 522 104.031 521.812 103.469C521.531 103 521.438 102.672 521.531 102.484C521.625 102.203 521.672 101.969 521.672 101.781C521.672 101.5 521.578 101.266 521.391 101.078C521.203 100.797 521.016 100.562 520.828 100.375C520.359 100.844 519.891 101.312 519.422 101.781C519.047 102.25 518.859 102.859 518.859 103.609C518.953 104.547 519.328 105.344 519.984 106C520.734 106.656 521.297 107.266 521.672 107.828L522.656 108.25ZM529.969 21.625C530.062 21.0625 530.109 20.5469 530.109 20.0781C530.203 19.5156 530.109 19.0469 529.828 18.6719C528.609 18.2969 527.344 18.1563 526.031 18.25C524.812 18.3437 523.641 18.4844 522.516 18.6719C521.484 19.1406 520.875 19.9844 520.688 21.2031C520.594 22.3281 520.547 23.4062 520.547 24.4375C521.016 25.0937 521.203 25.5156 521.109 25.7031C521.016 25.8906 520.922 26.0781 520.828 26.2656C521.109 26.5469 521.344 26.875 521.531 27.25C521.719 27.625 522.047 27.9062 522.516 28.0938C522.797 28.0938 523.125 27.8594 523.5 27.3906C523.969 26.8281 524.297 26.2656 524.484 25.7031C524.672 25.2344 524.766 24.7188 524.766 24.1562C524.766 23.5938 525 23.1719 525.469 22.8906C525.75 22.7031 525.984 22.6563 526.172 22.75C526.453 22.8437 526.734 22.8437 527.016 22.75C528.047 22.5625 529.031 22.1875 529.969 21.625ZM539.391 21.3438C539.578 20.9688 539.625 20.6406 539.531 20.3594C539.438 19.9844 539.344 19.6094 539.25 19.2344C538.031 18.6719 537.281 18.4844 537 18.6719C536.812 18.8594 536.578 19.0469 536.297 19.2344C535.828 19.5156 535.406 19.8438 535.031 20.2188C534.75 20.5937 534.609 21.0156 534.609 21.4844C535.266 21.9531 536.062 22.0938 537 21.9062C538.031 21.7187 538.828 21.5313 539.391 21.3438ZM587.344 104.453C587.344 104.922 587.531 105.297 587.906 105.578C588.281 105.766 588.656 105.859 589.031 105.859C589.5 105.859 589.922 105.766 590.297 105.578C590.672 105.297 590.812 104.828 590.719 104.172C590.062 103.703 589.688 103.469 589.594 103.469C589.5 103.375 589.5 103.234 589.594 103.047C589.125 103.234 588.609 103.422 588.047 103.609C587.578 103.703 587.344 103.984 587.344 104.453ZM607.172 107.406C608.297 107.219 609 106.703 609.281 105.859C609.562 104.922 609.375 104.078 608.719 103.328C607.688 103.516 606.703 103.562 605.766 103.469C604.828 103.281 603.984 103.422 603.234 103.891C602.203 103.703 600.984 103.703 599.578 103.891C598.266 103.984 597.422 104.547 597.047 105.578C597.234 105.766 597.469 106.094 597.75 106.562C598.125 106.938 598.594 107.219 599.156 107.406C599.531 107.5 599.953 107.5 600.422 107.406C600.891 107.312 601.406 107.266 601.969 107.266C602.531 107.172 603.094 107.172 603.656 107.266C604.219 107.266 604.734 107.266 605.203 107.266C605.672 107.266 606.047 107.312 606.328 107.406C606.703 107.406 606.984 107.406 607.172 107.406ZM569.062 23.875C569.062 23.5 569.016 22.9375 568.922 22.1875C568.922 21.4375 568.828 20.875 568.641 20.5C568.547 20.2188 568.312 19.8906 567.938 19.5156C567.656 19.1406 567.516 18.8125 567.516 18.5312C567.516 17.9688 567.891 17.7344 568.641 17.8281C569.484 17.8281 570.047 17.9219 570.328 18.1094C570.891 18.5781 571.266 19.4687 571.453 20.7812C571.734 22 571.781 23.0312 571.594 23.875C571.594 24.1562 571.547 24.4375 571.453 24.7188C571.359 24.9063 571.266 25.1406 571.172 25.4219C570.984 25.8906 570.938 26.4531 571.031 27.1094C571.125 27.6719 571.125 28.3281 571.031 29.0781C570.938 29.9219 570.797 30.8125 570.609 31.75C570.516 32.6875 570.422 33.6719 570.328 34.7031C568.734 34.6094 567.984 34 568.078 32.875C568.172 31.75 568.219 30.5312 568.219 29.2188C568.219 28.9375 568.172 28.6562 568.078 28.375C568.078 28.0938 568.078 27.8125 568.078 27.5312C568.172 26.875 568.312 26.2656 568.5 25.7031C568.781 25.0469 568.969 24.4375 569.062 23.875ZM510.281 43.4219C510.375 42.6719 510.469 41.9219 510.562 41.1719C510.656 40.4219 510.703 39.625 510.703 38.7812C510.609 37.8438 510.516 36.9062 510.422 35.9688C510.328 35.0312 510.234 34.0938 510.141 33.1562C509.953 32.2188 509.859 31.3281 509.859 30.4844C509.859 29.5469 509.672 28.6562 509.297 27.8125C509.484 27.4375 509.625 27.0625 509.719 26.6875C509.812 26.2187 509.953 25.7969 510.141 25.4219C510.516 25.3281 510.844 25.1875 511.125 25C511.5 24.7188 511.922 24.7188 512.391 25C512.484 26.7812 512.391 28.6094 512.109 30.4844C511.828 32.3594 511.828 34.2812 512.109 36.25C512.859 36.4375 513.516 37.0938 514.078 38.2188C514.734 39.25 514.875 40.4219 514.5 41.7344C514.312 42.2031 514.078 42.6719 513.797 43.1406C513.609 43.5156 513.516 43.9375 513.516 44.4062C513.234 44.5938 513 44.8281 512.812 45.1094C512.719 45.2969 512.484 45.3906 512.109 45.3906C511.922 45.9531 511.828 46.4688 511.828 46.9375C511.828 47.3125 511.594 47.5938 511.125 47.7812C510.375 47.5938 510 47.0312 510 46.0938C510.094 45.0625 510.188 44.1719 510.281 43.4219ZM568.359 83.3594C568.359 83.7344 568.547 84.3906 568.922 85.3281C569.016 86.1719 569.062 86.9219 569.062 87.5781C569.062 88.1406 569.25 88.7031 569.625 89.2656C570 89.7344 570.516 90.1562 571.172 90.5312C571.922 90.9062 572.672 91.0938 573.422 91.0938C573.891 91.0938 574.453 90.9062 575.109 90.5312C575.859 90.0625 576.562 90.0625 577.219 90.5312C577.969 91 578.25 91.8438 578.062 93.0625C577.594 93.7188 576.984 93.9531 576.234 93.7656C575.578 93.5781 574.828 93.4375 573.984 93.3438C572.859 93.1562 571.688 93.1094 570.469 93.2031C569.344 93.2031 568.312 93.0625 567.375 92.7812C566.812 92.5938 566.297 92.2656 565.828 91.7969C565.453 91.2344 565.312 90.625 565.406 89.9688C565.5 89.3125 565.641 88.7031 565.828 88.1406C566.016 87.4844 566.156 86.8281 566.25 86.1719C566.438 85.4219 566.484 84.625 566.391 83.7812C566.297 82.9375 566.297 82.0469 566.391 81.1094C566.391 80.8281 566.438 80.5938 566.531 80.4062C566.719 80.125 566.766 79.8438 566.672 79.5625C567.797 80.2188 568.359 80.875 568.359 81.5312C568.359 82.1875 568.359 82.7969 568.359 83.3594ZM583.969 93.2031C583.594 93.5781 583.078 93.9062 582.422 94.1875C581.859 94.375 581.203 94.375 580.453 94.1875C580.266 93.9062 580.078 93.6719 579.891 93.4844C579.797 93.2031 579.797 92.8281 579.891 92.3594C580.172 92.1719 580.547 92.0312 581.016 91.9375C581.484 91.75 581.906 91.6562 582.281 91.6562C582.75 91.6562 583.125 91.7969 583.406 92.0781C583.781 92.2656 583.969 92.6406 583.969 93.2031ZM513.797 112.75C513.328 112.844 513 112.844 512.812 112.75C512.625 112.562 512.297 112.469 511.828 112.469C510.422 112.844 509.438 112.656 508.875 111.906C508.406 111.531 507.938 110.922 507.469 110.078C507.094 109.141 506.906 108.344 506.906 107.688C507.281 106.469 507.422 105.719 507.328 105.438C507.234 105.156 507.234 104.828 507.328 104.453C507.422 103.703 507.562 103.047 507.75 102.484C507.938 101.922 508.125 101.406 508.312 100.938C508.125 100.188 507.938 99.3906 507.75 98.5469C507.562 97.7031 507.562 96.8594 507.75 96.0156C507.844 95.5469 507.891 94.9375 507.891 94.1875C507.891 93.3438 508.359 93.0156 509.297 93.2031C509.672 93.2969 510 93.6719 510.281 94.3281C510.656 94.8906 510.797 95.4531 510.703 96.0156C510.234 97.0469 510.047 97.7969 510.141 98.2656C510.234 98.6406 510.234 99.0625 510.141 99.5312C509.953 100.844 509.719 102.203 509.438 103.609C509.25 105.016 509.391 106.234 509.859 107.266C510.047 107.547 510.281 107.875 510.562 108.25C510.938 108.625 511.266 109 511.547 109.375C512.016 109.844 512.438 110.266 512.812 110.641C513.188 110.922 513.609 111.25 514.078 111.625L513.797 112.75ZM516.609 115.141C517.266 116.359 517.688 117.062 517.875 117.25C518.062 117.438 518.109 117.719 518.016 118.094C517.922 118.469 517.594 118.703 517.031 118.797C516.469 118.984 516 119.031 515.625 118.938C514.688 118.75 513.938 118.094 513.375 116.969C512.812 115.938 513.094 115.141 514.219 114.578C514.688 114.578 515.109 114.625 515.484 114.719C515.953 114.812 516.328 114.953 516.609 115.141ZM605.344 122.453C606.094 122.547 606.75 122.594 607.312 122.594C607.875 122.594 608.203 122.828 608.297 123.297C608.297 123.578 608.109 123.859 607.734 124.141C607.359 124.516 607.078 124.75 606.891 124.844C606.422 125.031 605.906 125.078 605.344 124.984C604.875 124.891 604.266 124.844 603.516 124.844C603.141 124.844 602.719 124.844 602.25 124.844C601.781 124.938 601.312 125.031 600.844 125.125C600.094 125.125 599.25 125.031 598.312 124.844C597.469 124.75 596.578 124.656 595.641 124.562C595.359 124.562 595.031 124.562 594.656 124.562C594.375 124.656 594.047 124.656 593.672 124.562C592.641 124.469 591.562 124.281 590.438 124C589.312 123.719 588.234 123.625 587.203 123.719C586.453 123.812 585.75 123.906 585.094 124C584.531 124.188 583.922 124.328 583.266 124.422C582.328 124.422 581.391 124.375 580.453 124.281C579.516 124.281 578.672 124.328 577.922 124.422C577.453 124.422 576.797 124.469 575.953 124.562C575.109 124.656 574.406 124.656 573.844 124.562C573.188 124.375 572.672 123.953 572.297 123.297C571.922 122.641 572.109 122.125 572.859 121.75C574.547 121.562 575.766 121.469 576.516 121.469C577.359 121.562 578.156 121.609 578.906 121.609C579.656 121.609 580.406 121.562 581.156 121.469C582 121.469 582.75 121.516 583.406 121.609C583.781 121.703 584.109 121.75 584.391 121.75C584.672 121.844 585 121.938 585.375 122.031H589.172C590.109 122.031 590.766 121.844 591.141 121.469C591.516 121.094 592.219 120.859 593.25 120.766C594.469 120.578 595.547 120.625 596.484 120.906C598.547 121.938 600.094 122.453 601.125 122.453C601.875 122.453 602.531 122.406 603.094 122.312C603.75 122.312 604.5 122.359 605.344 122.453Z" fill="url(#paint0_linear)"/>
<defs>
<linearGradient id="paint0_linear" x1="307.5" y1="-36" x2="307.5" y2="173" gradientUnits="userSpaceOnUse">
<stop stop-color="#21B5F4"/>
<stop offset="1" stop-color="#68C3EB" stop-opacity="0"/>
</linearGradient>
</defs>
</svg>
